<svg width="325" height="86" viewBox="0 0 325 86" fill="none" xmlns="http://www.w3.org/2000/svg">
<path d="M52.4399 66.6103C52.4399 66.6103 52.4401 66.6203 52.4301 66.6203C49.3801 71.6503 47.53 77.4803 47.24 83.7103C47.2 83.3203 47.15 82.9203 47.09 82.5403C47 77.7603 47.18 68.2103 49.89 63.9003C44.59 58.8903 37.45 55.8203 29.58 55.8203C13.24 55.8203 0 69.0603 0 85.4003H59.17C59.17 78.2603 56.6401 71.7203 52.4301 66.6103H52.4399Z" fill="#21295B"/>
<path d="M29.5793 47.1998C36.3283 47.1998 41.7994 41.7287 41.7994 34.9798C41.7994 28.2308 36.3283 22.7598 29.5793 22.7598C22.8304 22.7598 17.3594 28.2308 17.3594 34.9798C17.3594 41.7287 22.8304 47.1998 29.5793 47.1998Z" fill="#21295B"/>
<path d="M83.4905 40.5005C91.5041 40.5005 98.0005 34.0041 98.0005 25.9905C98.0005 17.9768 91.5041 11.4805 83.4905 11.4805C75.4768 11.4805 68.9805 17.9768 68.9805 25.9905C68.9805 34.0041 75.4768 40.5005 83.4905 40.5005Z" fill="#44466F"/>
<path d="M150.121 33.7495C159.366 33.7495 166.861 26.2548 166.861 17.0095C166.861 7.76429 159.366 0.269531 150.121 0.269531C140.876 0.269531 133.381 7.76429 133.381 17.0095C133.381 26.2548 140.876 33.7495 150.121 33.7495Z" fill="#686486"/>
<path d="M111.559 62.3794C107.709 68.8094 105.429 76.2894 105.229 84.2794C105.189 83.5094 105.109 82.7394 104.989 81.9994C104.729 76.2494 104.679 64.6794 108.079 58.7094C101.619 52.7494 92.9793 49.1094 83.4993 49.1094C63.4493 49.1094 47.1992 65.3594 47.1992 85.4094H119.799C119.799 76.6694 116.709 68.6494 111.559 62.3894V62.3794Z" fill="#44466F"/>
<path d="M195.031 85.41C195.031 60.61 174.921 40.5 150.121 40.5C125.321 40.5 105.211 60.61 105.211 85.41H195.031Z" fill="#686486"/>
<path d="M207.88 84.5083C207.43 84.5083 207.02 84.3983 206.66 84.1783C206.3 83.9583 206.019 83.6683 205.819 83.2983C205.619 82.9383 205.52 82.5283 205.52 82.1083C205.52 81.6283 205.629 81.2183 205.839 80.8583C206.049 80.4983 206.339 80.2183 206.709 80.0283C207.079 79.8383 207.46 79.7383 207.87 79.7383C208.28 79.7383 208.68 79.8283 209.04 80.0183C209.4 80.2083 209.69 80.4783 209.92 80.8383C210.15 81.1983 210.25 81.6183 210.25 82.1083C210.25 82.3983 210.199 82.6683 210.109 82.9383C210.019 83.2083 209.879 83.4383 209.709 83.6583L210.3 84.1583L209.979 84.5283L209.38 83.9883C208.95 84.3383 208.45 84.5083 207.89 84.5083H207.88ZM208.939 83.6083L208.089 82.8683L208.42 82.4983L209.26 83.2483C209.39 83.0983 209.48 82.9283 209.55 82.7383C209.62 82.5483 209.65 82.3383 209.65 82.1283C209.65 81.7883 209.57 81.4883 209.42 81.1983C209.27 80.9083 209.06 80.6883 208.79 80.5183C208.52 80.3483 208.22 80.2683 207.89 80.2683C207.56 80.2683 207.26 80.3483 207 80.5183C206.73 80.6783 206.52 80.9083 206.37 81.1883C206.22 81.4683 206.14 81.7783 206.14 82.1183C206.14 82.4583 206.22 82.7583 206.37 83.0383C206.52 83.3183 206.73 83.5483 207 83.7183C207.27 83.8883 207.57 83.9683 207.91 83.9683C208.3 83.9683 208.649 83.8483 208.949 83.6083H208.939Z" fill="#91193B" stroke="#91193B" stroke-width="0.26" stroke-miterlimit="10"/>
<path d="M212.04 84.2087C211.8 84.0187 211.68 83.7587 211.68 83.4187C211.68 83.0587 211.82 82.7887 212.08 82.5987C212.34 82.4087 212.71 82.3087 213.15 82.3087C213.52 82.3087 213.89 82.3687 214.24 82.4787V82.3187C214.24 82.0087 214.15 81.7787 213.97 81.6087C213.79 81.4487 213.53 81.3687 213.2 81.3687C212.87 81.3687 212.5 81.4487 212.13 81.6187L211.98 81.1787C212.19 81.0887 212.41 81.0087 212.61 80.9687C212.81 80.9187 213.04 80.8887 213.28 80.8887C213.79 80.8887 214.19 81.0187 214.47 81.2787C214.7 81.5187 214.82 81.8587 214.82 82.3187V84.4187H214.24V83.8287C214.13 84.0187 213.96 84.1787 213.75 84.3087C213.53 84.4387 213.26 84.4987 212.95 84.4987C212.6 84.4987 212.3 84.4087 212.06 84.2187L212.04 84.2087ZM213.69 83.9587C213.86 83.8787 214 83.7587 214.1 83.6187C214.2 83.4787 214.25 83.3187 214.25 83.1387V82.8087C213.95 82.7087 213.63 82.6587 213.28 82.6587C212.97 82.6587 212.72 82.7187 212.54 82.8487C212.35 82.9787 212.26 83.1487 212.26 83.3787C212.26 83.6087 212.34 83.7787 212.5 83.8987C212.66 84.0187 212.86 84.0787 213.1 84.0787C213.31 84.0787 213.51 84.0387 213.68 83.9487L213.69 83.9587Z" fill="#91193B" stroke="#91193B" stroke-width="0.26" stroke-miterlimit="10"/>
<path d="M217.01 84.2297C216.83 84.0597 216.74 83.8097 216.74 83.4697V81.4597H216.26V80.9697H216.74V79.9297H217.32V80.9697H218.41V81.4597H217.32V83.3697C217.32 83.5697 217.37 83.7197 217.47 83.8197C217.57 83.9197 217.71 83.9697 217.9 83.9697C218.07 83.9697 218.24 83.9297 218.4 83.8497V84.3297C218.22 84.4297 218 84.4797 217.75 84.4797C217.44 84.4797 217.19 84.3997 217.01 84.2297Z" fill="#91193B" stroke="#91193B" stroke-width="0.26" stroke-miterlimit="10"/>
<path d="M220.059 84.2087C219.819 84.0187 219.699 83.7587 219.699 83.4187C219.699 83.0587 219.839 82.7887 220.099 82.5987C220.359 82.4087 220.729 82.3087 221.169 82.3087C221.539 82.3087 221.909 82.3687 222.259 82.4787V82.3187C222.259 82.0087 222.169 81.7787 221.989 81.6087C221.809 81.4487 221.549 81.3687 221.219 81.3687C220.889 81.3687 220.519 81.4487 220.149 81.6187L219.999 81.1787C220.209 81.0887 220.429 81.0087 220.629 80.9687C220.829 80.9187 221.059 80.8887 221.299 80.8887C221.809 80.8887 222.209 81.0187 222.489 81.2787C222.719 81.5187 222.839 81.8587 222.839 82.3187V84.4187H222.259V83.8287C222.149 84.0187 221.979 84.1787 221.769 84.3087C221.549 84.4387 221.279 84.4987 220.969 84.4987C220.619 84.4987 220.319 84.4087 220.079 84.2187L220.059 84.2087ZM221.709 83.9587C221.879 83.8787 222.019 83.7587 222.119 83.6187C222.219 83.4787 222.269 83.3187 222.269 83.1387V82.8087C221.969 82.7087 221.649 82.6587 221.299 82.6587C220.989 82.6587 220.739 82.7187 220.559 82.8487C220.369 82.9787 220.279 83.1487 220.279 83.3787C220.279 83.6087 220.359 83.7787 220.519 83.8987C220.679 84.0187 220.879 84.0787 221.119 84.0787C221.329 84.0787 221.529 84.0387 221.699 83.9487L221.709 83.9587Z" fill="#91193B" stroke="#91193B" stroke-width="0.26" stroke-miterlimit="10"/>
<path d="M225.209 80.969V81.899C225.309 81.599 225.479 81.359 225.709 81.169C225.939 80.979 226.209 80.889 226.529 80.909V81.519H226.479C226.229 81.519 226.019 81.579 225.819 81.709C225.629 81.839 225.479 82.009 225.369 82.239C225.259 82.469 225.209 82.719 225.209 82.989V84.409H224.619V80.959H225.209V80.969Z" fill="#91193B" stroke="#91193B" stroke-width="0.26" stroke-miterlimit="10"/>
<path d="M230.84 79.7598L232.51 82.2298L234.18 79.7598H234.8V84.4198H234.2V80.7198L232.52 83.1698H232.51L230.83 80.7198V84.4198H230.24V79.7598H230.86H230.84Z" fill="#91193B" stroke="#91193B" stroke-width="0.26" stroke-miterlimit="10"/>
<path d="M236.8 84.2087C236.56 84.0187 236.439 83.7587 236.439 83.4187C236.439 83.0587 236.579 82.7887 236.839 82.5987C237.099 82.4087 237.47 82.3087 237.91 82.3087C238.28 82.3087 238.65 82.3687 239 82.4787V82.3187C239 82.0087 238.909 81.7787 238.729 81.6087C238.549 81.4487 238.289 81.3687 237.959 81.3687C237.629 81.3687 237.26 81.4487 236.89 81.6187L236.74 81.1787C236.95 81.0887 237.17 81.0087 237.37 80.9687C237.57 80.9187 237.8 80.8887 238.04 80.8887C238.55 80.8887 238.949 81.0187 239.229 81.2787C239.459 81.5187 239.579 81.8587 239.579 82.3187V84.4187H239V83.8287C238.89 84.0187 238.72 84.1787 238.51 84.3087C238.29 84.4387 238.019 84.4987 237.709 84.4987C237.359 84.4987 237.059 84.4087 236.819 84.2187L236.8 84.2087ZM238.449 83.9587C238.619 83.8787 238.759 83.7587 238.859 83.6187C238.959 83.4787 239.01 83.3187 239.01 83.1387V82.8087C238.71 82.7087 238.39 82.6587 238.04 82.6587C237.73 82.6587 237.48 82.7187 237.3 82.8487C237.11 82.9787 237.02 83.1487 237.02 83.3787C237.02 83.6087 237.1 83.7787 237.26 83.8987C237.42 84.0187 237.619 84.0787 237.859 84.0787C238.069 84.0787 238.269 84.0387 238.439 83.9487L238.449 83.9587Z" fill="#91193B" stroke="#91193B" stroke-width="0.26" stroke-miterlimit="10"/>
<path d="M241.939 80.9689V81.6689C242.049 81.4489 242.209 81.2689 242.419 81.1089C242.619 80.9589 242.869 80.8789 243.169 80.8789C243.579 80.8789 243.909 81.0089 244.139 81.2689C244.379 81.5289 244.489 81.8789 244.489 82.3089V84.4189H243.909V82.4789C243.909 82.1489 243.829 81.8989 243.659 81.7089C243.489 81.5189 243.259 81.4189 242.949 81.4189C242.639 81.4189 242.419 81.5189 242.229 81.7289C242.039 81.9289 241.939 82.1889 241.939 82.5189V84.4289H241.359V80.9789H241.939V80.9689Z" fill="#91193B" stroke="#91193B" stroke-width="0.26" stroke-miterlimit="10"/>
<path d="M246.859 80.9689V81.7389C246.989 81.4789 247.169 81.2789 247.399 81.1189C247.629 80.9589 247.899 80.8789 248.209 80.8789C248.499 80.8789 248.769 80.9589 249.029 81.1089C249.279 81.2589 249.479 81.4689 249.629 81.7489C249.779 82.0289 249.859 82.3389 249.859 82.6789C249.859 83.0389 249.779 83.3589 249.629 83.6289C249.479 83.8989 249.279 84.1089 249.029 84.2689C248.779 84.4189 248.509 84.4989 248.219 84.4989C247.899 84.4989 247.629 84.4189 247.389 84.2689C247.159 84.1189 246.979 83.9189 246.859 83.6689V85.4789H246.279V80.9589H246.869L246.859 80.9689ZM248.689 83.8289C248.869 83.7189 249.019 83.5689 249.119 83.3689C249.219 83.1689 249.279 82.9489 249.279 82.6989C249.279 82.4489 249.229 82.2389 249.119 82.0389C249.009 81.8389 248.869 81.6889 248.679 81.5789C248.489 81.4689 248.289 81.4089 248.069 81.4089C247.849 81.4089 247.649 81.4689 247.459 81.5789C247.269 81.6889 247.129 81.8389 247.019 82.0389C246.909 82.2389 246.859 82.4489 246.859 82.6889C246.859 82.9389 246.909 83.1589 247.019 83.3589C247.129 83.5589 247.269 83.7089 247.459 83.8289C247.649 83.9389 247.849 83.9989 248.069 83.9989C248.289 83.9989 248.509 83.9489 248.689 83.8389V83.8289Z" fill="#91193B" stroke="#91193B" stroke-width="0.26" stroke-miterlimit="10"/>
<path d="M252.13 84.2587C251.85 84.0987 251.64 83.8787 251.48 83.6087C251.32 83.3287 251.24 83.0287 251.24 82.7087C251.24 82.3787 251.32 82.0787 251.48 81.8087C251.64 81.5287 251.86 81.3087 252.13 81.1387C252.41 80.9787 252.73 80.8887 253.08 80.8887C253.43 80.8887 253.74 80.9687 254.01 81.1287C254.28 81.2887 254.5 81.5087 254.66 81.7787C254.82 82.0487 254.9 82.3487 254.9 82.6687C254.9 83.0087 254.82 83.3087 254.66 83.5887C254.5 83.8687 254.28 84.0787 254.01 84.2487C253.73 84.4087 253.42 84.4987 253.07 84.4987C252.72 84.4987 252.4 84.4187 252.13 84.2587ZM253.72 83.8287C253.91 83.7187 254.06 83.5587 254.16 83.3587C254.26 83.1587 254.32 82.9487 254.32 82.7087C254.32 82.4687 254.27 82.2487 254.16 82.0587C254.05 81.8687 253.9 81.7087 253.71 81.5887C253.52 81.4687 253.31 81.4087 253.07 81.4087C252.83 81.4087 252.62 81.4687 252.43 81.5787C252.24 81.6887 252.1 81.8487 251.99 82.0487C251.88 82.2487 251.83 82.4587 251.83 82.6987C251.83 82.9387 251.88 83.1587 251.99 83.3587C252.1 83.5587 252.25 83.7187 252.44 83.8387C252.63 83.9587 252.84 84.0187 253.08 84.0187C253.32 84.0187 253.53 83.9587 253.72 83.8487V83.8287Z" fill="#91193B" stroke="#91193B" stroke-width="0.26" stroke-miterlimit="10"/>
<path d="M256.849 80.9692L257.699 83.5992L258.579 80.9492H259.059L259.949 83.5992L260.799 80.9592H261.369L260.219 84.4292H259.719L258.829 81.7892L257.939 84.4292H257.449L256.279 80.9592H256.879L256.849 80.9692Z" fill="#91193B" stroke="#91193B" stroke-width="0.26" stroke-miterlimit="10"/>
<path d="M263.52 84.2787C263.25 84.1287 263.04 83.9187 262.89 83.6487C262.74 83.3787 262.66 83.0587 262.66 82.7087C262.66 82.3587 262.73 82.0587 262.87 81.7787C263.01 81.4987 263.21 81.2887 263.47 81.1287C263.73 80.9687 264.01 80.8887 264.34 80.8887C264.69 80.8887 264.99 80.9787 265.23 81.1387C265.48 81.3087 265.66 81.5387 265.79 81.8187C265.92 82.0987 265.98 82.4087 265.98 82.7387V82.8687H263.24C263.27 83.2287 263.39 83.5087 263.62 83.7187C263.85 83.9287 264.12 84.0387 264.45 84.0387C264.66 84.0387 264.85 83.9887 265.04 83.8987C265.23 83.8087 265.38 83.6687 265.52 83.5087L265.87 83.7987C265.51 84.2587 265.02 84.4987 264.43 84.4987C264.1 84.4987 263.8 84.4187 263.54 84.2787H263.52ZM265.09 81.6887C264.9 81.4587 264.64 81.3487 264.32 81.3487C264.02 81.3487 263.77 81.4587 263.57 81.6787C263.37 81.8987 263.25 82.1787 263.22 82.5187H265.39C265.38 82.1887 265.27 81.9187 265.08 81.6887H265.09Z" fill="#91193B" stroke="#91193B" stroke-width="0.26" stroke-miterlimit="10"/>
<path d="M268.16 80.969V81.899C268.26 81.599 268.43 81.359 268.66 81.169C268.89 80.979 269.16 80.889 269.48 80.909V81.519H269.43C269.18 81.519 268.97 81.579 268.77 81.709C268.58 81.839 268.43 82.009 268.32 82.239C268.21 82.469 268.16 82.719 268.16 82.989V84.409H267.57V80.959H268.16V80.969Z" fill="#91193B" stroke="#91193B" stroke-width="0.26" stroke-miterlimit="10"/>
<path d="M272.78 83.7498L273.13 83.3498C273.61 83.7798 274.15 83.9898 274.76 83.9898C275.07 83.9898 275.32 83.9198 275.51 83.7798C275.7 83.6398 275.79 83.4498 275.79 83.2298C275.79 83.0698 275.75 82.9498 275.68 82.8498C275.61 82.7498 275.49 82.6598 275.32 82.5898C275.15 82.5098 274.91 82.4398 274.59 82.3798C274.03 82.2598 273.61 82.0998 273.35 81.9098C273.09 81.7198 272.96 81.4298 272.96 81.0598C272.96 80.8098 273.03 80.5898 273.16 80.3898C273.29 80.1898 273.48 80.0398 273.72 79.9298C273.96 79.8198 274.24 79.7598 274.55 79.7598C275.19 79.7598 275.75 79.9498 276.23 80.3198L275.92 80.7498C275.49 80.4198 275.03 80.2598 274.53 80.2598C274.24 80.2598 274.01 80.3298 273.83 80.4698C273.65 80.6098 273.56 80.7798 273.56 80.9898C273.56 81.1398 273.6 81.2698 273.67 81.3698C273.74 81.4698 273.86 81.5598 274.03 81.6298C274.2 81.7098 274.45 81.7798 274.77 81.8398C275.33 81.9498 275.75 82.1198 276 82.3198C276.25 82.5198 276.39 82.7998 276.39 83.1598C276.39 83.4398 276.32 83.6698 276.18 83.8598C276.04 84.0598 275.85 84.2098 275.59 84.3298C275.33 84.4498 275.05 84.4998 274.72 84.4998C273.96 84.4998 273.31 84.2498 272.76 83.7498H272.78Z" fill="#91193B" stroke="#91193B" stroke-width="0.26" stroke-miterlimit="10"/>
<path d="M278.71 84.2587C278.43 84.0987 278.22 83.8787 278.06 83.6087C277.9 83.3287 277.82 83.0287 277.82 82.7087C277.82 82.3787 277.9 82.0787 278.06 81.8087C278.22 81.5287 278.44 81.3087 278.71 81.1387C278.99 80.9787 279.31 80.8887 279.66 80.8887C280.01 80.8887 280.32 80.9687 280.59 81.1287C280.87 81.2887 281.08 81.5087 281.24 81.7787C281.4 82.0587 281.48 82.3487 281.48 82.6687C281.48 83.0087 281.4 83.3087 281.24 83.5887C281.08 83.8687 280.86 84.0787 280.59 84.2487C280.31 84.4087 280 84.4987 279.65 84.4987C279.3 84.4987 278.98 84.4187 278.71 84.2587ZM280.31 83.8287C280.5 83.7187 280.65 83.5587 280.75 83.3587C280.85 83.1587 280.91 82.9487 280.91 82.7087C280.91 82.4687 280.86 82.2487 280.75 82.0587C280.64 81.8687 280.49 81.7087 280.3 81.5887C280.11 81.4687 279.9 81.4087 279.66 81.4087C279.42 81.4087 279.21 81.4687 279.02 81.5787C278.83 81.6887 278.69 81.8487 278.58 82.0487C278.47 82.2487 278.42 82.4587 278.42 82.6987C278.42 82.9387 278.47 83.1587 278.58 83.3587C278.69 83.5587 278.84 83.7187 279.03 83.8387C279.22 83.9587 279.43 84.0187 279.67 84.0187C279.91 84.0187 280.12 83.9587 280.31 83.8487V83.8287Z" fill="#91193B" stroke="#91193B" stroke-width="0.26" stroke-miterlimit="10"/>
<path d="M283.809 79.5488V84.4188H283.219V79.5488H283.809Z" fill="#91193B" stroke="#91193B" stroke-width="0.26" stroke-miterlimit="10"/>
<path d="M286 84.109C285.76 83.849 285.65 83.509 285.65 83.079V80.969H286.24V82.909C286.24 83.239 286.32 83.489 286.49 83.679C286.66 83.869 286.89 83.969 287.2 83.969C287.48 83.969 287.72 83.869 287.91 83.659C288.1 83.449 288.2 83.199 288.2 82.879V80.959H288.79V84.409H288.2V83.719C288.1 83.929 287.94 84.119 287.74 84.269C287.54 84.419 287.29 84.499 286.99 84.499C286.58 84.499 286.25 84.369 286.02 84.109H286Z" fill="#91193B" stroke="#91193B" stroke-width="0.26" stroke-miterlimit="10"/>
<path d="M291.039 84.2297C290.859 84.0597 290.769 83.8097 290.769 83.4697V81.4597H290.289V80.9697H290.769V79.9297H291.349V80.9697H292.439V81.4597H291.349V83.3697C291.349 83.5697 291.399 83.7197 291.499 83.8197C291.599 83.9197 291.739 83.9697 291.929 83.9697C292.099 83.9697 292.269 83.9297 292.429 83.8497V84.3297C292.249 84.4297 292.029 84.4797 291.779 84.4797C291.469 84.4797 291.219 84.3997 291.039 84.2297Z" fill="#91193B" stroke="#91193B" stroke-width="0.26" stroke-miterlimit="10"/>
<path d="M294.649 80.9785V84.4185H294.059V80.9785H294.649Z" fill="#91193B" stroke="#91193B" stroke-width="0.26" stroke-miterlimit="10"/>
<path d="M297.189 84.2587C296.909 84.0987 296.699 83.8787 296.539 83.6087C296.379 83.3287 296.299 83.0287 296.299 82.7087C296.299 82.3787 296.379 82.0787 296.539 81.8087C296.699 81.5287 296.919 81.3087 297.189 81.1387C297.469 80.9787 297.789 80.8887 298.139 80.8887C298.489 80.8887 298.799 80.9687 299.069 81.1287C299.339 81.2887 299.559 81.5087 299.719 81.7787C299.879 82.0587 299.959 82.3487 299.959 82.6687C299.959 83.0087 299.879 83.3087 299.719 83.5887C299.559 83.8687 299.339 84.0787 299.069 84.2487C298.789 84.4087 298.479 84.4987 298.129 84.4987C297.779 84.4987 297.459 84.4187 297.189 84.2587ZM298.779 83.8287C298.969 83.7187 299.119 83.5587 299.219 83.3587C299.319 83.1587 299.379 82.9487 299.379 82.7087C299.379 82.4687 299.329 82.2487 299.219 82.0587C299.109 81.8687 298.959 81.7087 298.769 81.5887C298.579 81.4687 298.369 81.4087 298.129 81.4087C297.889 81.4087 297.679 81.4687 297.489 81.5787C297.299 81.6887 297.159 81.8487 297.049 82.0487C296.939 82.2487 296.889 82.4587 296.889 82.6987C296.889 82.9387 296.939 83.1587 297.049 83.3587C297.159 83.5587 297.309 83.7187 297.499 83.8387C297.689 83.9587 297.899 84.0187 298.139 84.0187C298.379 84.0187 298.589 83.9587 298.779 83.8487V83.8287Z" fill="#91193B" stroke="#91193B" stroke-width="0.26" stroke-miterlimit="10"/>
<path d="M302.24 80.9689V81.6689C302.35 81.4489 302.51 81.2689 302.72 81.1089C302.92 80.9589 303.17 80.8789 303.47 80.8789C303.88 80.8789 304.21 81.0089 304.44 81.2689C304.68 81.5289 304.79 81.8789 304.79 82.3089V84.4189H304.21V82.4789C304.21 82.1489 304.13 81.8989 303.96 81.7089C303.79 81.5189 303.56 81.4189 303.25 81.4189C302.94 81.4189 302.72 81.5189 302.53 81.7289C302.34 81.9289 302.24 82.1889 302.24 82.5189V84.4289H301.66V80.9789H302.24V80.9689Z" fill="#91193B" stroke="#91193B" stroke-width="0.26" stroke-miterlimit="10"/>
<path d="M306.94 84.3492C306.68 84.2592 306.44 84.1291 306.23 83.9691L306.48 83.5891C306.67 83.7391 306.88 83.8491 307.09 83.9191C307.31 83.9991 307.52 84.0291 307.73 84.0291C307.94 84.0291 308.12 83.9792 308.26 83.8792C308.4 83.7792 308.47 83.6491 308.47 83.4991C308.47 83.3291 308.4 83.2092 308.26 83.1292C308.12 83.0492 307.9 82.9691 307.61 82.8891C307.34 82.8091 307.12 82.7391 306.96 82.6591C306.8 82.5791 306.661 82.4891 306.561 82.3691C306.461 82.2491 306.401 82.0792 306.401 81.8792C306.401 81.5692 306.52 81.3291 306.75 81.1491C306.98 80.9591 307.291 80.8691 307.661 80.8691C307.891 80.8691 308.11 80.9091 308.34 80.9791C308.57 81.0491 308.77 81.1491 308.95 81.2691L308.72 81.6591C308.55 81.5491 308.37 81.4591 308.19 81.4091C308 81.3491 307.821 81.3192 307.661 81.3192C307.451 81.3192 307.281 81.3692 307.151 81.4592C307.021 81.5492 306.95 81.6691 306.95 81.8091C306.95 81.9591 307.021 82.0791 307.161 82.1491C307.301 82.2291 307.52 82.3091 307.83 82.4091C308.22 82.5091 308.52 82.6391 308.73 82.7791C308.94 82.9191 309.041 83.1391 309.041 83.4191C309.041 83.7491 308.921 83.9991 308.681 84.1891C308.441 84.3791 308.12 84.4691 307.74 84.4691C307.48 84.4691 307.22 84.4191 306.95 84.3291L306.94 84.3492Z" fill="#91193B" stroke="#91193B" stroke-width="0.26" stroke-miterlimit="10"/>
<path d="M313.849 84.1995C313.499 83.9895 313.229 83.7095 313.019 83.3495C312.819 82.9895 312.719 82.5795 312.719 82.1395C312.719 81.6995 312.819 81.3095 313.019 80.9495C313.219 80.5895 313.499 80.2995 313.849 80.0895C314.199 79.8795 314.589 79.7695 315.029 79.7695C315.439 79.7695 315.779 79.8395 316.069 79.9795C316.359 80.1195 316.619 80.3195 316.849 80.5695L316.409 80.9395C316.219 80.7395 316.019 80.5895 315.799 80.4695C315.579 80.3595 315.319 80.2995 315.019 80.2995C314.719 80.2995 314.409 80.3795 314.149 80.5495C313.889 80.7095 313.689 80.9395 313.539 81.2195C313.389 81.4995 313.319 81.7995 313.319 82.1295C313.319 82.4595 313.399 82.7795 313.549 83.0595C313.699 83.3395 313.899 83.5595 314.159 83.7295C314.419 83.8895 314.709 83.9695 315.029 83.9695C315.319 83.9695 315.579 83.9095 315.809 83.7995C316.039 83.6895 316.249 83.5195 316.449 83.3095L316.879 83.6395C316.639 83.9195 316.369 84.1295 316.069 84.2895C315.769 84.4495 315.419 84.5195 314.999 84.5195C314.579 84.5195 314.189 84.4195 313.839 84.2095L313.849 84.1995Z" fill="#91193B" stroke="#91193B" stroke-width="0.26" stroke-miterlimit="10"/>
<path d="M319.029 84.2587C318.749 84.0987 318.539 83.8787 318.379 83.6087C318.219 83.3287 318.139 83.0287 318.139 82.7087C318.139 82.3787 318.219 82.0787 318.379 81.8087C318.539 81.5287 318.759 81.3087 319.029 81.1387C319.309 80.9787 319.629 80.8887 319.979 80.8887C320.329 80.8887 320.639 80.9687 320.909 81.1287C321.189 81.2887 321.399 81.5087 321.559 81.7787C321.719 82.0487 321.799 82.3487 321.799 82.6687C321.799 83.0087 321.719 83.3087 321.559 83.5887C321.399 83.8687 321.179 84.0787 320.909 84.2487C320.629 84.4087 320.319 84.4987 319.969 84.4987C319.619 84.4987 319.299 84.4187 319.029 84.2587ZM320.619 83.8287C320.809 83.7187 320.959 83.5587 321.059 83.3587C321.159 83.1587 321.219 82.9487 321.219 82.7087C321.219 82.4687 321.169 82.2487 321.059 82.0587C320.949 81.8687 320.799 81.7087 320.609 81.5887C320.419 81.4687 320.209 81.4087 319.969 81.4087C319.729 81.4087 319.519 81.4687 319.329 81.5787C319.139 81.6887 318.999 81.8487 318.889 82.0487C318.779 82.2487 318.729 82.4587 318.729 82.6987C318.729 82.9387 318.779 83.1587 318.889 83.3587C318.999 83.5587 319.149 83.7187 319.339 83.8387C319.529 83.9587 319.739 84.0187 319.979 84.0187C320.219 84.0187 320.429 83.9587 320.619 83.8487V83.8287Z" fill="#91193B" stroke="#91193B" stroke-width="0.26" stroke-miterlimit="10"/>
<path d="M323.34 84.3188C323.27 84.2488 323.24 84.1688 323.24 84.0688C323.24 83.9688 323.27 83.8888 323.34 83.8188C323.41 83.7488 323.49 83.7188 323.59 83.7188C323.69 83.7188 323.78 83.7488 323.84 83.8188C323.9 83.8888 323.94 83.9688 323.94 84.0688C323.94 84.1688 323.9 84.2488 323.84 84.3188C323.78 84.3888 323.69 84.4187 323.59 84.4187C323.49 84.4187 323.41 84.3788 323.34 84.3188Z" fill="#91193B" stroke="#91193B" stroke-width="0.26" stroke-miterlimit="10"/>
<path d="M294.359 80.2987C294.542 80.2987 294.689 80.1509 294.689 79.9687C294.689 79.7864 294.542 79.6387 294.359 79.6387C294.177 79.6387 294.029 79.7864 294.029 79.9687C294.029 80.1509 294.177 80.2987 294.359 80.2987Z" fill="#91193B" stroke="#91193B" stroke-width="0.26" stroke-miterlimit="10"/>
<path d="M220.919 50.0797C220.919 51.3097 220.759 52.4597 220.439 53.5297C220.129 54.6097 219.689 55.5897 219.149 56.4697C218.609 57.3497 217.969 58.1097 217.249 58.7397C216.529 59.3697 215.759 59.8297 214.949 60.1297C214.079 60.4597 213.099 60.7297 212.009 60.9597C210.919 61.1897 209.679 61.2997 208.309 61.2997C207.859 61.2997 207.469 61.2997 207.119 61.2797C206.779 61.2697 206.489 61.1997 206.269 61.0797C206.039 60.9597 205.869 60.7797 205.759 60.5397C205.649 60.2997 205.579 59.9697 205.579 59.5497V59.1497C205.579 58.9097 205.579 58.6397 205.559 58.3397C205.539 58.0397 205.539 57.7697 205.539 57.5297V57.0797C205.539 57.0197 205.549 56.8797 205.589 56.6497C205.619 56.4197 205.709 56.3097 205.859 56.3097C205.889 56.3097 206.019 56.3397 206.259 56.3997C206.589 56.4897 207.029 56.5597 207.579 56.5997C208.129 56.6497 208.709 56.6697 209.309 56.6697C211.489 56.6097 213.179 55.9797 214.379 54.7897C215.579 53.5897 216.169 51.9797 216.169 49.9497V45.1697C216.169 44.0797 216.169 42.7097 216.149 41.0697C216.139 39.4297 216.129 37.4097 216.129 35.0097C216.129 34.1397 216.299 33.5397 216.649 33.1897C216.999 32.8497 217.519 32.6797 218.209 32.6797H220.879L220.929 50.0897L220.919 50.0797Z" fill="#21295B"/>
<path d="M220.919 18.9605C220.919 20.1905 220.759 21.3405 220.439 22.4105C220.129 23.4905 219.689 24.4705 219.149 25.3505C218.609 26.2305 217.969 26.9905 217.249 27.6205C216.529 28.2505 215.759 28.7105 214.949 29.0105C214.079 29.3405 213.099 29.6105 212.009 29.8405C210.919 30.0705 209.679 30.1805 208.309 30.1805C207.859 30.1805 207.469 30.1805 207.119 30.1605C206.779 30.1505 206.489 30.0805 206.269 29.9605C206.039 29.8405 205.869 29.6605 205.759 29.4205C205.649 29.1805 205.579 28.8505 205.579 28.4305V28.0305C205.579 27.7905 205.579 27.5205 205.559 27.2205C205.539 26.9205 205.539 26.6505 205.539 26.4105V25.9605C205.539 25.9005 205.549 25.7605 205.589 25.5305C205.619 25.3005 205.709 25.1905 205.859 25.1905C205.889 25.1905 206.019 25.2205 206.259 25.2805C206.589 25.3705 207.029 25.4405 207.579 25.4805C208.129 25.5305 208.709 25.5505 209.309 25.5505C211.489 25.4905 213.179 24.8605 214.379 23.6705C215.579 22.4705 216.169 20.8605 216.169 18.8305V14.0505C216.169 12.9605 216.169 11.5905 216.149 9.95055C216.129 8.31055 216.129 6.29054 216.129 3.89054C216.129 3.02054 216.299 2.42055 216.649 2.07055C216.999 1.73055 217.519 1.56055 218.209 1.56055H220.879L220.929 18.9705L220.919 18.9605Z" fill="#21295B"/>
<path d="M238.059 18.5998C236.179 18.5998 234.589 18.4398 233.299 18.1098C232.009 17.7798 230.969 17.2798 230.179 16.6098C229.389 15.9398 228.819 15.0798 228.469 14.0298C228.119 12.9798 227.959 11.7298 227.959 10.2598V9.71977C227.989 8.24977 228.259 6.92977 228.769 5.74977C229.279 4.56977 229.979 3.56977 230.859 2.76977C231.749 1.95977 232.809 1.33977 234.049 0.909767C235.289 0.479767 236.679 0.259766 238.209 0.259766C239.559 0.259766 240.769 0.509766 241.849 1.02977C242.929 1.54977 243.849 2.24977 244.619 3.16977C245.389 4.08977 245.979 5.16977 246.399 6.40977C246.819 7.64977 247.029 9.00977 247.029 10.4798V14.0798H256.089V18.6098H247.029C246.999 20.9398 246.669 22.8598 246.029 24.3498C245.399 25.8398 244.499 27.0298 243.339 27.8898C242.179 28.7598 240.779 29.3598 239.129 29.6798C237.489 30.0098 235.629 30.1698 233.569 30.1698C233.089 30.1698 232.689 30.1598 232.379 30.1298C232.069 30.0998 231.819 30.0298 231.639 29.9298C231.459 29.8298 231.329 29.6498 231.259 29.4198C231.179 29.1798 231.149 28.8398 231.149 28.3998V27.9998C231.149 27.7598 231.149 27.4898 231.129 27.1798C231.119 26.8698 231.109 26.5598 231.109 26.2498V25.5598C231.109 25.4398 231.159 25.3498 231.249 25.2898H231.299L231.389 25.2398C231.389 25.2398 231.529 25.2698 231.699 25.3298C231.849 25.3898 232.059 25.4298 232.329 25.4698C232.599 25.4998 232.889 25.5298 233.209 25.5598C233.529 25.5898 233.829 25.6098 234.129 25.6298C234.429 25.6398 234.679 25.6498 234.889 25.6498C235.729 25.6498 236.559 25.5698 237.399 25.3998C238.239 25.2398 238.989 24.8998 239.669 24.4098C240.339 23.9098 240.889 23.1998 241.309 22.2598C241.729 21.3298 241.939 20.1098 241.939 18.5998H238.069H238.059ZM241.909 12.6298C241.909 12.1498 241.909 11.6598 241.929 11.1598C241.949 10.6598 241.949 10.1598 241.949 9.64977C241.949 9.01977 241.859 8.41977 241.679 7.84977C241.499 7.27977 241.239 6.77977 240.889 6.33977C240.539 5.89977 240.119 5.54977 239.599 5.27977C239.089 5.00977 238.499 4.86977 237.839 4.86977C236.099 4.86977 234.799 5.30977 233.959 6.17977C233.119 7.04977 232.699 8.23977 232.699 9.73977C232.699 10.6398 232.759 11.3798 232.879 11.9498C232.999 12.5198 233.229 12.9698 233.579 13.2798C233.929 13.5898 234.419 13.8098 235.069 13.9098C235.719 14.0098 236.559 14.0698 237.619 14.0698H241.899V12.6298H241.909Z" fill="#21295B"/>
<path d="M266.219 18.8288C266.099 18.8288 265.789 18.8088 265.299 18.7588C264.809 18.7088 264.249 18.6288 263.619 18.5088C262.989 18.3888 262.379 18.2088 261.779 17.9688C261.179 17.7288 260.729 17.3988 260.439 16.9788C260.169 17.2788 259.859 17.5488 259.499 17.7888C259.169 17.9988 258.749 18.1888 258.239 18.3488C257.729 18.5088 257.119 18.5988 256.399 18.5988H250.529V14.0688H255.769C256.969 14.0688 257.639 13.4788 257.789 12.3088V1.54883H262.629V11.7688C262.689 12.6988 263.029 13.3488 263.639 13.7088C264.249 14.0688 265.009 14.2488 265.909 14.2488C266.719 14.2488 267.479 14.0688 268.199 13.7088C268.919 13.3488 269.279 12.7288 269.279 11.8588V1.54883H274.039V11.9488C274.039 12.3988 274.139 12.7788 274.349 13.0788C274.559 13.3788 274.829 13.6188 275.159 13.7988C275.489 13.9788 275.859 14.1088 276.259 14.1788C276.659 14.2488 277.059 14.2888 277.449 14.2888C278.259 14.2888 278.959 14.0888 279.559 13.6988C280.159 13.3088 280.459 12.6588 280.459 11.7588C280.459 11.5188 280.459 10.9688 280.439 10.1188C280.429 9.26883 280.419 8.36883 280.419 7.43883V3.92883C280.419 3.05883 280.539 2.43883 280.779 2.08883C281.019 1.72883 281.619 1.54883 282.569 1.54883H285.169V12.3088C285.289 13.4788 285.959 14.0688 287.189 14.0688H294.909V18.5988H287.909C287.309 18.5988 286.769 18.5188 286.269 18.3688C285.769 18.2188 285.339 18.0388 284.969 17.8288C284.589 17.6188 284.289 17.3988 284.049 17.1788C283.809 16.9588 283.629 16.7488 283.509 16.5788C282.819 17.3288 281.989 17.8788 281.019 18.2388C280.049 18.5988 278.979 18.7788 277.809 18.7788C275.209 18.7788 273.219 18.1788 271.839 16.9888C271.179 17.6788 270.319 18.1588 269.259 18.4288C268.199 18.6988 267.189 18.8288 266.229 18.8288H266.219Z" fill="#21295B"/>
<path d="M306.48 24.7109C305.81 24.7109 305.25 24.9409 304.78 25.4109C304.31 25.8809 304.08 26.4209 304.08 27.0509C304.08 27.6809 304.31 28.2709 304.78 28.7309C305.25 29.1909 305.81 29.4309 306.48 29.4309C307.15 29.4309 307.7 29.2009 308.16 28.7309C308.62 28.2609 308.84 27.7009 308.84 27.0509C308.84 26.4009 308.61 25.8809 308.16 25.4109C307.71 24.9409 307.15 24.7109 306.48 24.7109Z" fill="#21295B"/>
<path d="M315.42 1.56055H305.81L295.329 1.60054V4.33055C295.329 4.85055 295.499 5.24055 295.839 5.50055C296.179 5.76055 296.79 5.89054 297.66 5.89054C299.08 5.89054 300.36 5.89054 301.51 5.89054V5.86055H315.01C317.28 5.86055 319.12 7.70055 319.12 9.97055C319.12 12.2405 317.28 14.0805 315.01 14.0805H289.189V18.6105H315.41C320.12 18.6105 323.93 14.7905 323.93 10.0905C323.93 5.39055 320.11 1.57055 315.41 1.57055L315.42 1.56055Z" fill="#21295B"/>
<path d="M243.249 47.3798L243.219 37.3398H240.489C239.969 37.3398 239.579 37.5098 239.319 37.8498C239.059 38.1898 238.929 38.7998 238.929 39.6698C238.929 41.0898 238.959 46.9698 238.959 46.9698C238.959 49.2398 237.119 51.0798 234.849 51.0798C232.579 51.0798 230.739 49.2398 230.739 46.9698V37.3398H226.209V47.3798C226.209 52.0898 230.029 55.8998 234.729 55.8998C239.429 55.8998 243.249 52.0798 243.249 47.3798Z" fill="#21295B"/>
<path d="M308.21 47.0896L308.18 37.3496H305.45C304.93 37.3496 304.54 37.5196 304.28 37.8596C304.02 38.1996 303.89 38.8096 303.89 39.6796C303.89 41.0996 303.92 46.7996 303.92 46.7996C303.92 48.9496 302.35 50.8696 300.21 51.0696C297.76 51.2996 295.69 49.3796 295.69 46.9796V37.3496H291.69C291.4 37.3496 291.16 37.5896 291.16 37.8796V47.3796C291.16 52.2696 295.29 56.2096 300.25 55.8896C304.78 55.5996 308.21 51.6296 308.21 47.0896Z" fill="#21295B"/>
<path d="M278.359 37.3398C273.629 37.3398 269.799 41.1698 269.799 45.8998V47.3298C269.799 52.0598 273.629 55.8898 278.359 55.8898C283.089 55.8898 286.919 52.0598 286.919 47.3298V45.8998C286.919 41.1698 283.089 37.3398 278.359 37.3398ZM282.549 46.8898C282.549 49.2098 280.669 51.0798 278.359 51.0798C276.049 51.0798 274.169 49.1998 274.169 46.8898V46.3498C274.169 44.0298 276.049 42.1599 278.359 42.1599C280.669 42.1599 282.549 44.0398 282.549 46.3498V46.8898Z" fill="#21295B"/>
<path d="M264.269 40.2398V37.8598C264.269 37.5698 264.039 37.3398 263.749 37.3398H254.669C251.719 37.3398 249.069 39.4598 248.719 42.3898C248.309 45.8798 251.019 48.8298 254.429 48.8298H257.559V44.3998H255.099C254.369 44.3998 253.779 43.8098 253.779 43.0798C253.779 42.3498 254.369 41.7598 255.099 41.7598H262.759C263.599 41.7598 264.289 41.0799 264.289 40.2299L264.269 40.2398Z" fill="#21295B"/>
<path d="M247.7 53.0002V55.3801C247.7 55.6701 247.93 55.9002 248.22 55.9002H259.45C262.4 55.9002 265.05 53.7802 265.4 50.8502C265.81 47.3602 263.1 44.4102 259.69 44.4102H256.56V48.8401H259.02C259.75 48.8401 260.34 49.4302 260.34 50.1602C260.34 50.8902 259.75 51.4802 259.02 51.4802H249.21C248.37 51.4802 247.68 52.1602 247.68 53.0102L247.7 53.0002Z" fill="#21295B"/>
<path d="M321.18 42.1501V37.3301C316.63 37.5101 313 41.2501 313 45.8401V46.3801H313.01L313.03 55.8701H315.76C316.28 55.8701 316.67 55.7001 316.93 55.3601C317.19 55.0201 317.32 54.4101 317.32 53.5401C317.32 52.1201 317.32 53.7901 317.32 52.6401H317.29V46.2401C317.29 44.0401 319.01 42.2701 321.18 42.1501Z" fill="#21295B"/>
<path d="M321.18 37.3301H323.56C323.77 37.3301 323.95 37.5101 323.95 37.7201V41.2301C323.95 41.7401 323.54 42.1501 323.03 42.1501H321.19V37.3301H321.18Z" fill="#21295B"/>
<path d="M219.16 37.4899H210.3C210.09 37.4899 209.91 37.3099 209.91 37.0999V33.5899C209.91 33.0799 210.32 32.6699 210.83 32.6699H219.16V37.4899Z" fill="#21295B"/>
<path d="M323.949 64.4297H205.529V65.9297H323.949V64.4297Z" fill="#202A5A"/>
<path d="M212.43 74.8087H209.51C209.18 74.8087 208.95 74.7588 208.81 74.6488C208.68 74.5488 208.62 74.3488 208.62 74.0488V72.5287C208.62 72.4387 208.59 72.3687 208.53 72.3087C208.47 72.2487 208.39 72.2188 208.31 72.2188H207.089C206.649 72.2287 206.279 72.3788 205.979 72.6488C205.679 72.9288 205.52 73.3488 205.52 73.8988C205.52 74.4488 205.66 74.8487 205.92 75.1387C206.19 75.4187 206.57 75.5688 207.05 75.5688C207.53 75.5688 207.929 75.4288 208.189 75.1588C208.309 75.3088 208.46 75.4088 208.64 75.4688C208.84 75.5387 209.13 75.5688 209.52 75.5688H209.55H211.54H212.849C212.939 75.5688 213.009 75.5387 213.069 75.4787C213.129 75.4187 213.16 75.3387 213.16 75.2587V72.2288H212.43V74.8187V74.8087ZM207.859 72.9688V73.9187C207.859 74.2287 207.78 74.4587 207.63 74.5987C207.48 74.7387 207.27 74.8087 207.01 74.8087C206.77 74.8087 206.589 74.7387 206.459 74.6087C206.329 74.4787 206.27 74.2487 206.27 73.9187C206.27 73.6187 206.35 73.3787 206.5 73.2188C206.65 73.0588 206.86 72.9788 207.14 72.9788H207.859V72.9688Z" fill="#91193B"/>
<path d="M223.62 76.1493C223.54 76.2293 223.49 76.3293 223.49 76.4393C223.49 76.5493 223.53 76.6493 223.62 76.7293C223.71 76.8093 223.8 76.8493 223.91 76.8493C224.02 76.8493 224.12 76.8093 224.2 76.7293C224.28 76.6493 224.32 76.5493 224.32 76.4393C224.32 76.3293 224.28 76.2393 224.2 76.1493C224.04 75.9893 223.77 75.9893 223.61 76.1493H223.62Z" fill="#91193B"/>
<path d="M226.051 74.8098H225.181C224.851 74.8098 224.62 74.7598 224.48 74.6498C224.35 74.5498 224.291 74.3499 224.291 74.0499V72.2198H223.541V74.0499C223.541 74.3399 223.48 74.5398 223.35 74.6498C223.22 74.7598 222.991 74.8098 222.651 74.8098C222.311 74.8098 222.09 74.7598 221.95 74.6498C221.82 74.5498 221.76 74.3499 221.76 74.0499V72.2198H221.01V74.1998C221.01 74.4198 220.96 74.5798 220.87 74.6698C220.78 74.7598 220.631 74.8098 220.431 74.8098C220.291 74.8098 220.17 74.7698 220.07 74.6998C219.98 74.6298 219.931 74.4998 219.931 74.3198V72.2299H219.181V74.3198C219.181 74.5198 219.14 74.6498 219.07 74.7098C219.02 74.7598 218.89 74.8098 218.58 74.8198C218.34 74.8198 218.021 74.7399 218.021 74.0499V72.2299H217.271V74.0598C217.271 74.3598 217.21 74.5599 217.08 74.6599C216.95 74.7699 216.71 74.8198 216.38 74.8198H215.62V72.2299H214.87V75.4698C214.87 75.7398 214.771 75.9498 214.551 76.1198C214.331 76.2898 214.001 76.4098 213.561 76.4498H213.48L213.49 77.2099H213.58C214.22 77.1399 214.72 76.9599 215.07 76.6599C215.41 76.3799 215.59 76.0098 215.62 75.5798H216.421C216.771 75.5798 217.04 75.5499 217.23 75.4899C217.4 75.4399 217.551 75.3398 217.671 75.1998C217.771 75.3098 217.901 75.3899 218.031 75.4599C218.191 75.5399 218.38 75.5798 218.58 75.5798C219.01 75.5798 219.331 75.4598 219.551 75.2298C219.651 75.3298 219.761 75.4098 219.891 75.4698C220.051 75.5398 220.221 75.5798 220.391 75.5798C220.621 75.5798 220.82 75.5398 221.01 75.4798C221.16 75.4198 221.301 75.3398 221.411 75.2498C221.521 75.3698 221.67 75.4498 221.84 75.4998C222.03 75.5598 222.301 75.5898 222.651 75.5898H222.661C223.011 75.5898 223.29 75.5598 223.48 75.4998C223.65 75.4498 223.791 75.3598 223.911 75.2298C224.031 75.3598 224.17 75.4498 224.34 75.4998C224.53 75.5598 224.801 75.5898 225.151 75.5898H226.45C226.54 75.5898 226.611 75.5598 226.671 75.4998C226.731 75.4398 226.76 75.3598 226.76 75.2798V70.5898H226.041V74.8398L226.051 74.8098Z" fill="#91193B"/>
<path d="M228.4 70.5605H227.65V75.5605H228.4V70.5605Z" fill="#91193B"/>
<path d="M234.039 72.4405C233.779 72.5805 233.579 72.7905 233.429 73.0505C233.279 73.3105 233.199 73.6105 233.199 73.9405V74.6905C233.199 74.8305 233.249 74.9405 233.339 75.0405C233.429 75.1305 233.549 75.1805 233.679 75.1805H234.769V75.5605C234.769 75.8305 234.669 76.0405 234.459 76.2105C234.249 76.3805 233.949 76.4705 233.569 76.4705C233.189 76.4705 232.879 76.3805 232.669 76.2105C232.459 76.0405 232.359 75.8305 232.359 75.5705V74.2605H231.609V75.5705C231.609 75.8805 231.689 76.1705 231.849 76.4205C232.009 76.6705 232.239 76.8705 232.539 77.0105C232.829 77.1505 233.179 77.2205 233.569 77.2205C233.959 77.2205 234.299 77.1505 234.599 77.0105C234.899 76.8705 235.129 76.6705 235.299 76.4205C235.459 76.1705 235.539 75.8905 235.539 75.6005V74.9105C235.539 74.7805 235.489 74.6705 235.399 74.5705C235.309 74.4705 235.189 74.4305 235.059 74.4305H233.969V73.9505C233.969 73.6605 234.059 73.4405 234.239 73.2505C234.419 73.0705 234.639 72.9805 234.909 72.9805H235.549V72.2305H234.909C234.599 72.2305 234.309 72.3005 234.049 72.4505L234.039 72.4405Z" fill="#91193B"/>
<path d="M247.1 74.8105H245.71V73.9406C245.71 73.4106 245.57 72.9905 245.3 72.6805C245.02 72.3705 244.63 72.2206 244.15 72.2206C243.67 72.2206 243.29 72.3705 243.02 72.6805C242.75 72.9805 242.61 73.4105 242.61 73.9505C242.61 74.2905 242.67 74.5805 242.8 74.8205H239.47V74.1606C239.47 73.5606 239.32 73.0805 239.03 72.7405C238.73 72.4005 238.33 72.2306 237.82 72.2306C237.31 72.2306 236.93 72.3805 236.65 72.6705C236.37 72.9605 236.24 73.4106 236.24 73.9806C236.24 74.3006 236.32 74.5805 236.48 74.8205C236.64 75.0605 236.84 75.2505 237.09 75.3705C237.33 75.5005 237.58 75.5605 237.84 75.5605H238.71C238.68 75.7805 238.57 75.9606 238.39 76.1006C238.17 76.2706 237.84 76.3805 237.41 76.4305H237.33L237.34 77.1906H237.43C238.07 77.1206 238.57 76.9405 238.92 76.6405C239.26 76.3605 239.44 75.9905 239.47 75.5605H240.02H242.07H247.52C247.61 75.5605 247.68 75.5306 247.74 75.4706C247.8 75.4106 247.83 75.3305 247.83 75.2505V70.5605H247.11V74.8105H247.1ZM243.34 73.9505C243.34 73.6205 243.42 73.3706 243.56 73.2206C243.71 73.0606 243.9 72.9806 244.13 72.9806C244.38 72.9806 244.58 73.0606 244.74 73.2306C244.9 73.3906 244.98 73.6405 244.98 73.9605V74.8306H244.22C243.88 74.8306 243.65 74.7705 243.53 74.6305C243.41 74.4905 243.34 74.2705 243.34 73.9605V73.9505ZM237.22 73.2005C237.37 73.0405 237.56 72.9605 237.81 72.9605C238.06 72.9605 238.27 73.0606 238.44 73.2606C238.61 73.4606 238.7 73.7606 238.7 74.1506V74.8006H237.81C237.58 74.8006 237.39 74.7205 237.23 74.5605C237.07 74.4005 236.99 74.2106 236.99 73.9706C236.99 73.6106 237.07 73.3506 237.22 73.1906V73.2005Z" fill="#91193B"/>
<path d="M249.439 70.5605H248.689V75.5605H249.439V70.5605Z" fill="#91193B"/>
<path d="M255.82 75.5387C255.82 75.8087 255.72 76.0188 255.51 76.1888C255.3 76.3688 255 76.4487 254.62 76.4487C254.24 76.4487 253.93 76.3588 253.72 76.1888C253.51 76.0188 253.41 75.7987 253.41 75.5387V74.2487H252.66V75.5488C252.66 75.8588 252.74 76.1487 252.9 76.3987C253.06 76.6487 253.29 76.8487 253.59 76.9987C253.88 77.1387 254.23 77.2088 254.62 77.2088C255.01 77.2088 255.35 77.1387 255.64 76.9987C255.94 76.8587 256.17 76.6588 256.33 76.4088C256.49 76.1588 256.58 75.8787 256.58 75.5887V70.4688H255.83V75.5387H255.82Z" fill="#91193B"/>
<path d="M271 74.8091H269.63C269.57 74.3591 269.389 73.9291 269.099 73.5391C268.799 73.1291 268.409 72.8091 267.959 72.5691C267.499 72.3291 267.01 72.2191 266.5 72.2191H266.41V72.9691H266.5C266.88 72.9691 267.239 73.0591 267.569 73.2191C267.899 73.3891 268.18 73.6191 268.4 73.8991C268.61 74.1691 268.75 74.4791 268.81 74.7991H265.67C265.34 74.7991 265.109 74.7491 264.969 74.6391C264.839 74.5391 264.78 74.3391 264.78 74.0391V70.5491H264.03V74.0391C264.03 74.3291 263.969 74.5291 263.839 74.6391C263.709 74.7491 263.48 74.7991 263.14 74.7991H260.5V74.1391C260.5 73.5391 260.35 73.0591 260.06 72.7191C259.76 72.3791 259.359 72.2091 258.849 72.2091C258.339 72.2091 257.96 72.3591 257.68 72.6491C257.4 72.9391 257.27 73.3891 257.27 73.9591C257.27 74.2791 257.35 74.5591 257.51 74.7991C257.67 75.0391 257.87 75.2291 258.12 75.3491C258.36 75.4791 258.61 75.5391 258.87 75.5391H259.74C259.71 75.7591 259.6 75.9391 259.42 76.0791C259.2 76.2491 258.869 76.3591 258.439 76.4091H258.359L258.37 77.1691H258.459C259.099 77.0991 259.599 76.9191 259.949 76.6191C260.289 76.3391 260.47 75.9691 260.5 75.5391H261.05H263.13H263.15C263.5 75.5391 263.769 75.5091 263.959 75.4491C264.129 75.3991 264.27 75.3091 264.39 75.1791C264.51 75.3091 264.649 75.3991 264.819 75.4491C265.009 75.5091 265.3 75.5391 265.65 75.5391H265.689H270.079H271.38C271.47 75.5391 271.539 75.5091 271.599 75.4491C271.659 75.3891 271.689 75.3091 271.689 75.2291V70.5391H270.969V74.7891L271 74.8091ZM258.27 73.1991C258.42 73.0391 258.609 72.9591 258.859 72.9591C259.109 72.9591 259.32 73.0591 259.49 73.2591C259.66 73.4591 259.75 73.7591 259.75 74.1491V74.7991H258.859C258.629 74.7991 258.44 74.7191 258.28 74.5591C258.12 74.3991 258.04 74.2091 258.04 73.9691C258.04 73.6091 258.12 73.3491 258.27 73.1891V73.1991Z" fill="#91193B"/>
<path d="M281.68 74.8087H278.75C278.42 74.8087 278.19 74.7588 278.05 74.6488C277.92 74.5488 277.86 74.3488 277.86 74.0488V72.5287C277.86 72.4387 277.83 72.3687 277.77 72.3087C277.71 72.2487 277.63 72.2188 277.55 72.2188H276.33C275.89 72.2287 275.52 72.3788 275.22 72.6488C274.92 72.9288 274.76 73.3488 274.76 73.8988C274.76 74.4488 274.9 74.8487 275.16 75.1387C275.43 75.4187 275.81 75.5688 276.29 75.5688C276.77 75.5688 277.17 75.4288 277.43 75.1588C277.55 75.3088 277.7 75.4088 277.88 75.4688C278.08 75.5387 278.37 75.5688 278.76 75.5688H278.79H280.79H282.1C282.19 75.5688 282.26 75.5387 282.32 75.4787C282.38 75.4187 282.41 75.3387 282.41 75.2587V72.2288H281.68V74.8187V74.8087ZM277.1 72.9688V73.9187C277.1 74.2287 277.02 74.4587 276.87 74.5987C276.72 74.7387 276.51 74.8087 276.25 74.8087C276.01 74.8087 275.83 74.7387 275.7 74.6087C275.57 74.4787 275.51 74.2487 275.51 73.9187C275.51 73.6187 275.59 73.3787 275.74 73.2188C275.89 73.0588 276.1 72.9788 276.38 72.9788H277.1V72.9688Z" fill="#91193B"/>
<path d="M295.909 74.8101H294.519V73.9401C294.519 73.4101 294.379 72.9901 294.109 72.6801C293.829 72.3701 293.439 72.2201 292.959 72.2201C292.479 72.2201 292.099 72.3701 291.829 72.6801C291.559 72.9801 291.419 73.4101 291.419 73.9501C291.419 74.2901 291.479 74.5801 291.609 74.8201H290.869H290.279V74.3101C290.279 73.7201 290.129 73.2201 289.839 72.8301C289.549 72.4401 289.109 72.2401 288.549 72.2401C287.829 72.2401 287.209 72.7001 286.679 73.6101V70.5801H285.929V74.8301H284.859V72.2401H284.109V75.4801C284.109 75.7501 284.009 75.9601 283.789 76.1301C283.569 76.3001 283.239 76.4201 282.799 76.4601H282.719L282.729 77.2201H282.819C283.459 77.1501 283.959 76.9701 284.309 76.6701C284.649 76.3901 284.829 76.0201 284.859 75.5901H285.679H290.879H296.329C296.419 75.5901 296.489 75.5601 296.549 75.5001C296.609 75.4401 296.639 75.3601 296.639 75.2801V70.5901H295.919V74.8401L295.909 74.8101ZM292.159 73.9501C292.159 73.6201 292.239 73.3701 292.379 73.2201C292.529 73.0601 292.719 72.9801 292.949 72.9801C293.199 72.9801 293.399 73.0601 293.559 73.2301C293.719 73.3901 293.799 73.6401 293.799 73.9601V74.8301H293.039C292.699 74.8301 292.469 74.7701 292.349 74.6301C292.229 74.4901 292.159 74.2701 292.159 73.9601V73.9501ZM288.539 72.9701C288.879 72.9701 289.129 73.0801 289.299 73.3101C289.469 73.5401 289.559 73.8501 289.559 74.2101V74.8101H286.789C287.019 74.2201 287.289 73.7701 287.589 73.4501C287.899 73.1301 288.219 72.9701 288.539 72.9701Z" fill="#91193B"/>
<path d="M298.26 70.5605H297.51V75.5605H298.26V70.5605Z" fill="#91193B"/>
<path d="M310.569 72.4295C310.329 72.2895 310.049 72.2195 309.749 72.2195H309.109L311.159 70.8195V70.0195L307.919 72.2195L307.879 72.2495V72.9695H309.739C309.979 72.9695 310.189 73.0495 310.349 73.2095C310.509 73.3695 310.599 73.5795 310.599 73.8495V74.7995H305.439C305.109 74.7995 304.879 74.7495 304.739 74.6395C304.609 74.5395 304.549 74.3395 304.549 74.0395V72.5195C304.549 72.4295 304.519 72.3595 304.459 72.2995C304.399 72.2395 304.319 72.2095 304.239 72.2095H303.019C302.579 72.2195 302.209 72.3695 301.909 72.6395C301.609 72.9195 301.449 73.3395 301.449 73.8895C301.449 74.4395 301.589 74.8395 301.849 75.1295C302.119 75.4095 302.499 75.5595 302.979 75.5595C303.459 75.5595 303.859 75.4195 304.119 75.1495C304.239 75.2995 304.389 75.3995 304.569 75.4595C304.769 75.5295 305.059 75.5595 305.449 75.5595H305.479H307.539H311.049C311.139 75.5595 311.209 75.5295 311.269 75.4695C311.329 75.4095 311.359 75.3295 311.359 75.2495V73.8495C311.359 73.5395 311.289 73.2595 311.149 73.0095C311.009 72.7595 310.809 72.5695 310.569 72.4295ZM303.799 72.9695V73.9195C303.799 74.2295 303.719 74.4595 303.569 74.5995C303.419 74.7395 303.209 74.8095 302.949 74.8095C302.709 74.8095 302.529 74.7395 302.399 74.6095C302.269 74.4795 302.209 74.2495 302.209 73.9195C302.209 73.6195 302.289 73.3795 302.439 73.2195C302.589 73.0595 302.799 72.9795 303.079 72.9795H303.799V72.9695Z" fill="#91193B"/>
<path d="M321.589 74.8098H320.719C320.389 74.8098 320.159 74.7598 320.019 74.6498C319.889 74.5498 319.829 74.3499 319.829 74.0499V72.2198H319.079V74.1998C319.079 74.4198 319.029 74.5798 318.939 74.6698C318.849 74.7598 318.699 74.8098 318.499 74.8098C318.359 74.8098 318.239 74.7698 318.139 74.6998C318.049 74.6298 317.999 74.4998 317.999 74.3198V72.2299H317.249V74.3198C317.249 74.5198 317.209 74.6498 317.139 74.7098C317.089 74.7598 316.959 74.8098 316.649 74.8198C316.409 74.8198 316.089 74.7399 316.089 74.0499V72.2299H315.339V74.0598C315.339 74.3598 315.279 74.5599 315.149 74.6599C315.019 74.7699 314.779 74.8198 314.449 74.8198H313.689V72.2299H312.939V75.4698C312.939 75.7398 312.839 75.9498 312.619 76.1198C312.399 76.2898 312.069 76.4098 311.629 76.4498H311.549L311.559 77.2099H311.649C312.289 77.1399 312.789 76.9599 313.139 76.6599C313.479 76.3799 313.659 76.0098 313.689 75.5798H314.489C314.839 75.5798 315.109 75.5499 315.299 75.4899C315.469 75.4399 315.619 75.3398 315.739 75.1998C315.839 75.3098 315.969 75.3899 316.099 75.4599C316.259 75.5399 316.449 75.5798 316.649 75.5798C317.079 75.5798 317.399 75.4598 317.619 75.2298C317.719 75.3298 317.829 75.4098 317.959 75.4698C318.119 75.5398 318.289 75.5798 318.459 75.5798C318.689 75.5798 318.889 75.5398 319.079 75.4798C319.229 75.4198 319.369 75.3398 319.479 75.2498C319.589 75.3698 319.739 75.4498 319.909 75.4998C320.099 75.5598 320.359 75.5798 320.699 75.5898H321.989C322.079 75.5898 322.149 75.5598 322.209 75.4998C322.269 75.4398 322.299 75.3598 322.299 75.2798V70.5898H321.579V74.8398L321.589 74.8098Z" fill="#91193B"/>
<path d="M323.939 70.5605H323.189V75.5605H323.939V70.5605Z" fill="#91193B"/>
<path d="M317.74 71.0995C317.74 71.2095 317.78 71.3095 317.86 71.3995C317.94 71.4795 318.041 71.5195 318.161 71.5195C318.281 71.5195 318.37 71.4795 318.45 71.3895C318.53 71.3095 318.57 71.2095 318.57 71.0995C318.57 70.9895 318.53 70.8895 318.45 70.8095C318.29 70.6495 318.03 70.6495 317.86 70.8095C317.78 70.8895 317.73 70.9895 317.73 71.0995H317.74Z" fill="#91193B"/>
<path d="M317.161 71.5097C317.271 71.5097 317.37 71.4697 317.45 71.3797C317.53 71.2997 317.57 71.1997 317.57 71.0897C317.57 70.9797 317.53 70.8797 317.45 70.7997C317.29 70.6397 317.03 70.6397 316.86 70.7997C316.78 70.8797 316.73 70.9797 316.73 71.0897C316.73 71.1997 316.77 71.2997 316.85 71.3897C316.93 71.4697 317.031 71.5097 317.151 71.5097H317.161Z" fill="#91193B"/>
<path d="M317.66 70.6796C317.77 70.6796 317.87 70.6396 317.95 70.5496C318.03 70.4696 318.07 70.3696 318.07 70.2596C318.07 70.1496 318.03 70.0496 317.95 69.9696C317.79 69.8096 317.52 69.8096 317.36 69.9696C317.28 70.0496 317.24 70.1496 317.24 70.2696C317.24 70.3896 317.28 70.4796 317.37 70.5596C317.46 70.6396 317.55 70.6796 317.66 70.6796Z" fill="#91193B"/>
<path d="M219.66 71.0995C219.66 71.2095 219.7 71.3095 219.78 71.3995C219.86 71.4795 219.96 71.5195 220.08 71.5195C220.2 71.5195 220.29 71.4795 220.37 71.3895C220.45 71.3095 220.49 71.2095 220.49 71.0995C220.49 70.9895 220.45 70.8895 220.37 70.8095C220.21 70.6495 219.95 70.6495 219.78 70.8095C219.7 70.8895 219.65 70.9895 219.65 71.0995H219.66Z" fill="#91193B"/>
<path d="M219.08 71.5097C219.19 71.5097 219.29 71.4697 219.37 71.3797C219.45 71.2997 219.49 71.1997 219.49 71.0897C219.49 70.9797 219.45 70.8797 219.37 70.7997C219.21 70.6397 218.95 70.6397 218.78 70.7997C218.7 70.8797 218.65 70.9797 218.65 71.0897C218.65 71.1997 218.69 71.2997 218.77 71.3897C218.85 71.4697 218.95 71.5097 219.07 71.5097H219.08Z" fill="#91193B"/>
<path d="M219.58 70.6796C219.69 70.6796 219.79 70.6396 219.87 70.5496C219.95 70.4696 219.99 70.3696 219.99 70.2596C219.99 70.1496 219.95 70.0496 219.87 69.9696C219.71 69.8096 219.44 69.8096 219.28 69.9696C219.2 70.0496 219.16 70.1496 219.16 70.2696C219.16 70.3896 219.2 70.4796 219.29 70.5596C219.38 70.6396 219.47 70.6796 219.58 70.6796Z" fill="#91193B"/>
<path d="M303.369 71.0897C303.369 71.1997 303.409 71.2997 303.489 71.3897C303.569 71.4697 303.669 71.5097 303.789 71.5097C303.909 71.5097 303.999 71.4697 304.079 71.3797C304.159 71.2997 304.199 71.1997 304.199 71.0897C304.199 70.9797 304.159 70.8797 304.079 70.7997C303.919 70.6397 303.659 70.6397 303.489 70.7997C303.409 70.8797 303.359 70.9797 303.359 71.0897H303.369Z" fill="#91193B"/>
<path d="M302.799 71.5097C302.909 71.5097 303.009 71.4697 303.089 71.3797C303.169 71.2997 303.209 71.1997 303.209 71.0897C303.209 70.9797 303.169 70.8797 303.089 70.7997C302.929 70.6397 302.669 70.6397 302.499 70.7997C302.419 70.8797 302.369 70.9797 302.369 71.0897C302.369 71.1997 302.409 71.2997 302.489 71.3897C302.569 71.4697 302.669 71.5097 302.789 71.5097H302.799Z" fill="#91193B"/>
<path d="M293.03 71.0897C293.03 71.1997 293.07 71.2997 293.15 71.3897C293.23 71.4697 293.329 71.5097 293.449 71.5097C293.569 71.5097 293.66 71.4697 293.74 71.3797C293.82 71.2997 293.859 71.1997 293.859 71.0897C293.859 70.9797 293.82 70.8797 293.74 70.7997C293.58 70.6397 293.32 70.6397 293.15 70.7997C293.07 70.8797 293.02 70.9797 293.02 71.0897H293.03Z" fill="#91193B"/>
<path d="M292.449 71.5097C292.559 71.5097 292.66 71.4697 292.74 71.3797C292.82 71.2997 292.859 71.1997 292.859 71.0897C292.859 70.9797 292.82 70.8797 292.74 70.7997C292.58 70.6397 292.32 70.6397 292.15 70.7997C292.07 70.8797 292.02 70.9797 292.02 71.0897C292.02 71.1997 292.06 71.2997 292.14 71.3897C292.22 71.4697 292.319 71.5097 292.439 71.5097H292.449Z" fill="#91193B"/>
<path d="M281.549 76.4588C281.549 76.5688 281.589 76.6688 281.669 76.7588C281.749 76.8388 281.849 76.8788 281.969 76.8788C282.089 76.8788 282.179 76.8388 282.259 76.7488C282.339 76.6688 282.379 76.5688 282.379 76.4588C282.379 76.3488 282.339 76.2488 282.259 76.1688C282.099 76.0088 281.839 76.0088 281.669 76.1688C281.589 76.2488 281.539 76.3488 281.539 76.4588H281.549Z" fill="#91193B"/>
<path d="M280.969 76.8788C281.079 76.8788 281.179 76.8388 281.259 76.7488C281.339 76.6688 281.379 76.5688 281.379 76.4588C281.379 76.3488 281.339 76.2488 281.259 76.1688C281.099 76.0088 280.839 76.0088 280.669 76.1688C280.589 76.2488 280.539 76.3488 280.539 76.4588C280.539 76.5688 280.579 76.6688 280.659 76.7588C280.739 76.8388 280.839 76.8788 280.959 76.8788H280.969Z" fill="#91193B"/>
<path d="M276.67 71.0897C276.67 71.1997 276.71 71.2997 276.79 71.3897C276.87 71.4697 276.97 71.5097 277.09 71.5097C277.21 71.5097 277.3 71.4697 277.38 71.3797C277.46 71.2997 277.5 71.1997 277.5 71.0897C277.5 70.9797 277.46 70.8797 277.38 70.7997C277.22 70.6397 276.96 70.6397 276.79 70.7997C276.71 70.8797 276.66 70.9797 276.66 71.0897H276.67Z" fill="#91193B"/>
<path d="M276.09 71.5097C276.2 71.5097 276.3 71.4697 276.38 71.3797C276.46 71.2997 276.5 71.1997 276.5 71.0897C276.5 70.9797 276.46 70.8797 276.38 70.7997C276.22 70.6397 275.96 70.6397 275.79 70.7997C275.71 70.8797 275.66 70.9797 275.66 71.0897C275.66 71.1997 275.7 71.2997 275.78 71.3897C275.86 71.4697 275.96 71.5097 276.08 71.5097H276.09Z" fill="#91193B"/>
<path d="M244.219 71.0897C244.219 71.1997 244.259 71.2997 244.339 71.3897C244.419 71.4697 244.519 71.5097 244.639 71.5097C244.759 71.5097 244.849 71.4697 244.929 71.3797C245.009 71.2997 245.049 71.1997 245.049 71.0897C245.049 70.9797 245.009 70.8797 244.929 70.7997C244.769 70.6397 244.509 70.6397 244.339 70.7997C244.259 70.8797 244.209 70.9797 244.209 71.0897H244.219Z" fill="#91193B"/>
<path d="M243.639 71.5097C243.749 71.5097 243.849 71.4697 243.929 71.3797C244.009 71.2997 244.049 71.1997 244.049 71.0897C244.049 70.9797 244.009 70.8797 243.929 70.7997C243.769 70.6397 243.509 70.6397 243.339 70.7997C243.259 70.8797 243.209 70.9797 243.209 71.0897C243.209 71.1997 243.249 71.2997 243.329 71.3897C243.409 71.4697 243.509 71.5097 243.629 71.5097H243.639Z" fill="#91193B"/>
<path d="M212.299 76.4588C212.299 76.5688 212.339 76.6688 212.419 76.7588C212.499 76.8388 212.599 76.8788 212.719 76.8788C212.839 76.8788 212.929 76.8388 213.009 76.7488C213.089 76.6688 213.129 76.5688 213.129 76.4588C213.129 76.3488 213.089 76.2488 213.009 76.1688C212.849 76.0088 212.589 76.0088 212.419 76.1688C212.339 76.2488 212.289 76.3488 212.289 76.4588H212.299Z" fill="#91193B"/>
<path d="M211.719 76.8788C211.829 76.8788 211.929 76.8388 212.009 76.7488C212.089 76.6688 212.129 76.5688 212.129 76.4588C212.129 76.3488 212.089 76.2488 212.009 76.1688C211.849 76.0088 211.589 76.0088 211.419 76.1688C211.339 76.2488 211.289 76.3488 211.289 76.4588C211.289 76.5688 211.329 76.6688 211.409 76.7588C211.489 76.8388 211.589 76.8788 211.709 76.8788H211.719Z" fill="#91193B"/>
<path d="M207.44 71.0897C207.44 71.1997 207.48 71.2997 207.56 71.3897C207.64 71.4697 207.74 71.5097 207.86 71.5097C207.98 71.5097 208.07 71.4697 208.15 71.3797C208.23 71.2997 208.27 71.1997 208.27 71.0897C208.27 70.9797 208.23 70.8797 208.15 70.7997C207.99 70.6397 207.73 70.6397 207.56 70.7997C207.48 70.8797 207.43 70.9797 207.43 71.0897H207.44Z" fill="#91193B"/>
<path d="M206.86 71.5097C206.97 71.5097 207.07 71.4697 207.15 71.3797C207.23 71.2997 207.27 71.1997 207.27 71.0897C207.27 70.9797 207.23 70.8797 207.15 70.7997C206.99 70.6397 206.73 70.6397 206.56 70.7997C206.48 70.8797 206.43 70.9797 206.43 71.0897C206.43 71.1997 206.47 71.2997 206.55 71.3897C206.63 71.4697 206.73 71.5097 206.85 71.5097H206.86Z" fill="#91193B"/>
</svg>
