<?xml version="1.0" encoding="UTF-8"?>
<svg id="Layer_1" data-name="Layer 1" xmlns="http://www.w3.org/2000/svg" viewBox="0 0 1080 395">
  <defs>
    <style>
      .cls-1, .cls-2, .cls-3, .cls-4, .cls-5 {
        stroke-width: 0px;
      }

      .cls-1, .cls-6 {
        fill: #91193b;
      }

      .cls-2 {
        fill: #21295b;
      }

      .cls-3 {
        fill: #44466f;
      }

      .cls-6 {
        stroke: #91193b;
        stroke-miterlimit: 10;
        stroke-width: .26px;
      }

      .cls-4 {
        fill: #686486;
      }

      .cls-5 {
        fill: #202a5a;
      }
    </style>
  </defs>
  <g>
    <path class="cls-2" d="M233.65,263.9s-.02.03-.03.04c-8.52,14.06-13.71,30.36-14.51,47.8-.11-1.1-.24-2.2-.41-3.28-.26-13.38.25-40.07,7.84-52.14-14.82-14.01-34.8-22.61-56.8-22.61-45.7,0-82.74,37.04-82.74,82.74h165.48c0-19.96-7.07-38.27-18.84-52.56Z"/>
    <circle class="cls-2" cx="169.74" cy="175.42" r="34.18"/>
    <circle class="cls-3" cx="320.51" cy="150.3" r="40.59"/>
    <circle class="cls-4" cx="506.85" cy="125.18" r="46.83"/>
    <path class="cls-3" d="M399,252.07s0,0,0,.01c-10.76,17.98-17.15,38.88-17.7,61.23-.11-2.16-.33-4.3-.66-6.39-.74-16.08-.86-48.44,8.63-65.14h0c-18.08-16.66-42.22-26.84-68.75-26.84-56.07,0-101.52,45.45-101.52,101.52h203.04c0-24.45-8.64-46.87-23.04-64.39Z"/>
    <path class="cls-4" d="M632.46,316.46c0-69.37-56.23-125.6-125.6-125.6s-125.6,56.23-125.6,125.6h251.21Z"/>
  </g>
  <g>
    <g>
      <path class="cls-6" d="M668.4,313.95c-1.27,0-2.41-.3-3.42-.91-1-.61-1.78-1.42-2.34-2.45-.56-1.02-.83-2.14-.83-3.34,0-1.33.3-2.5.9-3.5.6-1,1.41-1.78,2.42-2.32,1.01-.54,2.09-.81,3.25-.81s2.27.26,3.28.79c1.02.53,1.83,1.29,2.45,2.3s.92,2.19.92,3.55c0,.81-.13,1.58-.4,2.33-.26.75-.64,1.41-1.12,2l1.65,1.41-.9,1.03-1.69-1.52c-1.2.97-2.59,1.45-4.17,1.45ZM671.36,311.44l-2.39-2.06.92-1.03,2.35,2.11c.35-.41.62-.89.8-1.44.18-.55.27-1.12.27-1.72,0-.94-.21-1.8-.64-2.6-.42-.8-1.01-1.43-1.76-1.9-.75-.47-1.59-.7-2.53-.7s-1.76.23-2.5.69c-.75.46-1.33,1.09-1.76,1.88-.42.79-.64,1.66-.64,2.61s.21,1.78.64,2.57c.42.79,1.01,1.42,1.76,1.9.75.48,1.6.71,2.55.71,1.08,0,2.06-.34,2.92-1.01Z"/>
      <path class="cls-6" d="M680.02,313.13c-.68-.53-1.02-1.26-1.02-2.2v-.02c0-.98.38-1.74,1.13-2.28.75-.54,1.75-.81,2.98-.81,1.04,0,2.06.16,3.05.48v-.46c0-.86-.25-1.52-.75-1.98-.5-.45-1.22-.68-2.15-.68s-1.95.23-2.99.7l-.42-1.23c.6-.26,1.19-.47,1.76-.6.57-.14,1.19-.21,1.87-.21,1.43,0,2.54.37,3.32,1.1.64.66.97,1.63.97,2.9v5.86h-1.63v-1.65c-.31.53-.77.97-1.38,1.33-.62.36-1.36.54-2.24.54-.98,0-1.81-.26-2.49-.79ZM684.63,312.43c.48-.23.86-.55,1.14-.96.28-.4.42-.85.42-1.33v-.92c-.83-.28-1.74-.42-2.7-.42-.86,0-1.56.18-2.08.54-.52.36-.78.85-.78,1.48v.04c0,.6.23,1.07.68,1.41.45.34,1.02.5,1.69.5.6,0,1.14-.12,1.63-.35Z"/>
      <path class="cls-6" d="M693.92,313.18c-.5-.47-.75-1.18-.75-2.13v-5.62h-1.34v-1.36h1.34v-2.92h1.63v2.92h3.05v1.36h-3.05v5.34c0,.56.14.98.42,1.26.28.29.67.43,1.19.43.48,0,.95-.11,1.41-.33v1.34c-.51.28-1.12.42-1.82.42-.88,0-1.57-.23-2.06-.7Z"/>
      <path class="cls-6" d="M702.47,313.13c-.68-.53-1.02-1.26-1.02-2.2v-.02c0-.98.38-1.74,1.13-2.28.75-.54,1.75-.81,2.98-.81,1.04,0,2.06.16,3.05.48v-.46c0-.86-.25-1.52-.75-1.98-.5-.45-1.22-.68-2.15-.68s-1.95.23-2.99.7l-.42-1.23c.6-.26,1.19-.47,1.76-.6.57-.14,1.19-.21,1.87-.21,1.43,0,2.54.37,3.32,1.1.64.66.97,1.63.97,2.9v5.86h-1.63v-1.65c-.31.53-.77.97-1.38,1.33-.62.36-1.36.54-2.24.54-.98,0-1.81-.26-2.49-.79ZM707.07,312.43c.48-.23.86-.55,1.14-.96.28-.4.42-.85.42-1.33v-.92c-.83-.28-1.74-.42-2.7-.42-.86,0-1.56.18-2.08.54-.52.36-.78.85-.78,1.48v.04c0,.6.23,1.07.68,1.41.45.34,1.02.5,1.69.5.6,0,1.14-.12,1.63-.35Z"/>
      <path class="cls-6" d="M716.87,304.06v2.59c.29-.84.76-1.51,1.41-2.03.64-.52,1.41-.77,2.28-.74v1.71h-.15c-.69,0-1.3.18-1.84.54-.54.36-.96.85-1.25,1.48-.29.63-.44,1.33-.44,2.11v3.98h-1.65v-9.64h1.65Z"/>
      <path class="cls-6" d="M732.6,300.68l4.66,6.92,4.66-6.92h1.74v13.02h-1.69v-10.35l-4.7,6.85h-.04l-4.7-6.85v10.35h-1.65v-13.02h1.73Z"/>
      <path class="cls-6" d="M749.28,313.13c-.68-.53-1.02-1.26-1.02-2.2v-.02c0-.98.38-1.74,1.13-2.28.75-.54,1.75-.81,2.98-.81,1.04,0,2.06.16,3.05.48v-.46c0-.86-.25-1.52-.75-1.98-.5-.45-1.22-.68-2.15-.68s-1.95.23-2.99.7l-.42-1.23c.6-.26,1.19-.47,1.76-.6.57-.14,1.19-.21,1.87-.21,1.43,0,2.54.37,3.32,1.1.64.66.97,1.63.97,2.9v5.86h-1.63v-1.65c-.31.53-.77.97-1.38,1.33-.62.36-1.36.54-2.24.54-.98,0-1.81-.26-2.49-.79ZM753.88,312.43c.48-.23.86-.55,1.14-.96.28-.4.42-.85.42-1.33v-.92c-.83-.28-1.74-.42-2.7-.42-.86,0-1.56.18-2.08.54-.52.36-.78.85-.78,1.48v.04c0,.6.23,1.07.68,1.41.45.34,1.02.5,1.69.5.6,0,1.14-.12,1.63-.35Z"/>
      <path class="cls-6" d="M763.65,304.06v1.95c.32-.61.76-1.13,1.33-1.56.56-.42,1.26-.64,2.1-.64,1.16,0,2.06.36,2.72,1.09.66.72.99,1.7.99,2.91v5.89h-1.63v-5.43c0-.91-.23-1.63-.7-2.16-.47-.53-1.13-.8-1.98-.8s-1.48.29-2.02.86c-.54.57-.81,1.3-.81,2.2v5.34h-1.63v-9.64h1.63Z"/>
      <path class="cls-6" d="M777.42,304.06v2.15c.37-.72.87-1.3,1.5-1.74.64-.44,1.39-.66,2.27-.66.82,0,1.58.21,2.28.64.7.42,1.26,1.02,1.68,1.79.42.77.63,1.64.63,2.6v.04c0,.98-.21,1.85-.63,2.61-.42.76-.97,1.35-1.67,1.78-.7.42-1.45.64-2.27.64-.89,0-1.66-.21-2.31-.64-.64-.42-1.14-.98-1.49-1.67v5.07h-1.63v-12.63h1.63ZM782.52,312.06c.51-.31.91-.74,1.21-1.28.29-.55.44-1.18.44-1.88v-.02c0-.67-.15-1.28-.44-1.83-.29-.55-.7-.98-1.22-1.3-.52-.31-1.09-.47-1.72-.47s-1.18.16-1.7.47c-.52.31-.93.74-1.23,1.28-.3.54-.45,1.15-.45,1.82v.04c0,.67.15,1.28.45,1.83.3.55.71.99,1.23,1.31.52.32,1.09.48,1.7.48s1.22-.15,1.74-.46Z"/>
      <path class="cls-6" d="M792.14,313.27c-.78-.45-1.38-1.07-1.82-1.83-.44-.77-.66-1.61-.66-2.52v-.02c0-.89.22-1.73.66-2.5.44-.78,1.05-1.39,1.83-1.86.78-.46,1.67-.69,2.65-.69s1.84.23,2.61.68,1.38,1.07,1.82,1.83.66,1.6.66,2.49v.04c0,.91-.22,1.75-.66,2.52-.44.77-1.05,1.38-1.82,1.85-.78.46-1.65.69-2.64.69s-1.86-.23-2.64-.68ZM796.6,312.06c.53-.32.94-.76,1.23-1.32.29-.56.44-1.16.44-1.82v-.02c0-.66-.15-1.26-.46-1.81-.31-.55-.73-.99-1.26-1.32-.53-.33-1.13-.49-1.79-.49s-1.27.16-1.79.48c-.52.32-.93.76-1.22,1.31-.29.55-.44,1.15-.44,1.81v.04c0,.64.15,1.24.45,1.8.3.56.72,1,1.25,1.33.53.33,1.13.5,1.79.5s1.27-.16,1.8-.48Z"/>
      <path class="cls-6" d="M805.36,304.06l2.37,7.36,2.46-7.4h1.34l2.48,7.42,2.37-7.38h1.6l-3.23,9.71h-1.41l-2.5-7.38-2.5,7.38h-1.38l-3.27-9.71h1.67Z"/>
      <path class="cls-6" d="M824.01,313.31c-.75-.41-1.34-1-1.77-1.76-.43-.76-.65-1.64-.65-2.64v-.04c0-.94.2-1.79.6-2.56.4-.77.96-1.37,1.68-1.81.72-.44,1.52-.66,2.42-.66.98,0,1.82.24,2.5.71.69.48,1.21,1.11,1.56,1.89.35.78.53,1.64.53,2.56v.37h-7.67c.07,1,.43,1.79,1.06,2.38.64.59,1.41.89,2.32.89.59,0,1.13-.13,1.64-.4s.95-.63,1.33-1.1l.99.81c-1.02,1.3-2.37,1.95-4.04,1.95-.92,0-1.76-.21-2.5-.61ZM828.41,306.08c-.53-.63-1.25-.94-2.14-.94-.83,0-1.54.3-2.11.91-.57.61-.89,1.39-.97,2.34h6.08c-.04-.91-.33-1.68-.87-2.31Z"/>
      <path class="cls-6" d="M836.97,304.06v2.59c.29-.84.76-1.51,1.41-2.03.64-.52,1.41-.77,2.28-.74v1.71h-.15c-.69,0-1.3.18-1.84.54-.54.36-.96.85-1.25,1.48-.29.63-.44,1.33-.44,2.11v3.98h-1.65v-9.64h1.65Z"/>
      <path class="cls-6" d="M849.91,311.82l.99-1.12c1.35,1.19,2.86,1.78,4.55,1.78.88,0,1.58-.2,2.11-.59.53-.39.79-.91.79-1.54v-.04c0-.41-.1-.75-.3-1.02-.2-.27-.53-.52-1.01-.73-.48-.22-1.15-.42-2.03-.59-1.58-.34-2.73-.78-3.46-1.32s-1.09-1.33-1.09-2.37v-.04c0-.67.19-1.28.56-1.83.37-.55.9-.98,1.58-1.3.68-.31,1.45-.47,2.32-.47,1.8,0,3.37.53,4.7,1.58l-.88,1.21c-1.2-.91-2.5-1.36-3.89-1.36-.81,0-1.46.2-1.97.59-.51.39-.76.88-.76,1.45v.02c0,.41.1.75.3,1.03.2.28.54.52,1.02.74.48.21,1.17.41,2.06.6,1.58.32,2.73.77,3.45,1.33s1.08,1.34,1.08,2.34v.04c0,.73-.19,1.38-.58,1.93-.39.56-.93.99-1.64,1.31s-1.52.47-2.44.47c-2.12,0-3.95-.7-5.47-2.09Z"/>
      <path class="cls-6" d="M866.49,313.27c-.78-.45-1.38-1.07-1.82-1.83-.44-.77-.66-1.61-.66-2.52v-.02c0-.89.22-1.73.66-2.5.44-.78,1.05-1.39,1.83-1.86.78-.46,1.67-.69,2.65-.69s1.84.23,2.61.68c.78.45,1.38,1.07,1.82,1.83.44.77.66,1.6.66,2.49v.04c0,.91-.22,1.75-.66,2.52-.44.77-1.05,1.38-1.82,1.85-.78.46-1.65.69-2.64.69s-1.86-.23-2.64-.68ZM870.95,312.06c.53-.32.94-.76,1.23-1.32.29-.56.44-1.16.44-1.82v-.02c0-.66-.15-1.26-.46-1.81-.31-.55-.73-.99-1.26-1.32-.53-.33-1.13-.49-1.79-.49s-1.27.16-1.79.48c-.52.32-.93.76-1.22,1.31-.29.55-.44,1.15-.44,1.81v.04c0,.64.15,1.24.45,1.8s.72,1,1.25,1.33c.53.33,1.13.5,1.79.5s1.27-.16,1.8-.48Z"/>
      <path class="cls-6" d="M880.74,300.09v13.62h-1.65v-13.62h1.65Z"/>
      <path class="cls-6" d="M886.87,312.85c-.66-.72-.99-1.68-.99-2.88v-5.91h1.65v5.43c0,.91.23,1.63.7,2.16.47.53,1.13.8,1.98.8.79,0,1.45-.29,1.99-.86s.8-1.3.8-2.17v-5.36h1.65v9.64h-1.65v-1.93c-.29.6-.72,1.11-1.3,1.53s-1.27.63-2.11.63c-1.16,0-2.06-.36-2.72-1.08Z"/>
      <path class="cls-6" d="M900.97,313.18c-.5-.47-.75-1.18-.75-2.13v-5.62h-1.34v-1.36h1.34v-2.92h1.63v2.92h3.05v1.36h-3.05v5.34c0,.56.14.98.42,1.26.28.29.67.43,1.19.43.48,0,.95-.11,1.41-.33v1.34c-.51.28-1.12.42-1.82.42-.88,0-1.57-.23-2.06-.7Z"/>
      <path class="cls-6" d="M911.07,304.09v9.62h-1.65v-9.62h1.65Z"/>
      <path class="cls-6" d="M918.17,313.27c-.78-.45-1.38-1.07-1.82-1.83-.44-.77-.66-1.61-.66-2.52v-.02c0-.89.22-1.73.66-2.5.44-.78,1.05-1.39,1.83-1.86.78-.46,1.67-.69,2.65-.69s1.84.23,2.61.68,1.38,1.07,1.82,1.83c.44.77.66,1.6.66,2.49v.04c0,.91-.22,1.75-.66,2.52-.44.77-1.05,1.38-1.82,1.85-.78.46-1.65.69-2.64.69s-1.86-.23-2.64-.68ZM922.63,312.06c.53-.32.94-.76,1.23-1.32.29-.56.44-1.16.44-1.82v-.02c0-.66-.15-1.26-.46-1.81-.31-.55-.73-.99-1.26-1.32-.53-.33-1.13-.49-1.79-.49s-1.27.16-1.79.48c-.52.32-.93.76-1.22,1.31-.29.55-.44,1.15-.44,1.81v.04c0,.64.15,1.24.45,1.8.3.56.72,1,1.25,1.33.53.33,1.13.5,1.79.5s1.27-.16,1.8-.48Z"/>
      <path class="cls-6" d="M932.29,304.06v1.95c.32-.61.76-1.13,1.33-1.56.56-.42,1.26-.64,2.1-.64,1.16,0,2.06.36,2.72,1.09.66.72.99,1.7.99,2.91v5.89h-1.63v-5.43c0-.91-.23-1.63-.7-2.16-.47-.53-1.13-.8-1.98-.8s-1.48.29-2.02.86c-.54.57-.81,1.3-.81,2.2v5.34h-1.63v-9.64h1.63Z"/>
      <path class="cls-6" d="M945.43,313.52c-.73-.26-1.39-.61-1.98-1.07l.7-1.05c.54.41,1.12.72,1.72.93.61.21,1.2.32,1.79.32s1.09-.14,1.48-.41c.39-.27.58-.63.58-1.07v-.02c0-.45-.2-.79-.59-1.02s-1-.45-1.82-.67c-.76-.22-1.37-.43-1.83-.63-.46-.2-.84-.47-1.13-.82-.29-.35-.44-.8-.44-1.36v-.04c0-.82.33-1.49.98-2.01.65-.52,1.5-.78,2.54-.78.63,0,1.26.1,1.89.3.63.2,1.2.47,1.71.82l-.64,1.1c-.47-.31-.97-.55-1.49-.71-.53-.17-1.03-.25-1.49-.25-.59,0-1.06.13-1.43.39-.37.26-.55.59-.55.99v.02c0,.41.19.73.58.94.39.22,1.01.46,1.88.72,1.1.29,1.94.64,2.51,1.04.58.4.87,1,.87,1.79v.04c0,.88-.34,1.58-1.02,2.1s-1.56.78-2.62.78c-.73,0-1.46-.13-2.2-.38Z"/>
      <path class="cls-6" d="M964.77,313.08c-.97-.58-1.74-1.37-2.31-2.38-.56-1.01-.85-2.14-.85-3.38s.28-2.33.85-3.34c.56-1.01,1.34-1.81,2.32-2.41.98-.59,2.08-.89,3.29-.89,1.14,0,2.11.19,2.91.58.8.39,1.53.94,2.19,1.66l-1.23,1.03c-.53-.56-1.09-.99-1.7-1.31-.61-.31-1.34-.47-2.19-.47-.89,0-1.7.23-2.43.69-.72.46-1.29,1.08-1.7,1.86-.41.78-.62,1.63-.62,2.55s.21,1.82.63,2.61c.42.79.99,1.41,1.72,1.87.73.45,1.54.68,2.42.68.82,0,1.55-.16,2.19-.48.64-.32,1.23-.78,1.79-1.38l1.21.92c-.67.78-1.43,1.38-2.27,1.81-.84.43-1.83.65-2.98.65s-2.27-.29-3.24-.87Z"/>
      <path class="cls-6" d="M979.25,313.27c-.78-.45-1.38-1.07-1.82-1.83-.44-.77-.66-1.61-.66-2.52v-.02c0-.89.22-1.73.66-2.5.44-.78,1.05-1.39,1.83-1.86.78-.46,1.67-.69,2.65-.69s1.84.23,2.61.68c.78.45,1.38,1.07,1.82,1.83s.66,1.6.66,2.49v.04c0,.91-.22,1.75-.66,2.52s-1.05,1.38-1.82,1.85c-.78.46-1.65.69-2.64.69s-1.86-.23-2.64-.68ZM983.71,312.06c.53-.32.94-.76,1.23-1.32.29-.56.44-1.16.44-1.82v-.02c0-.66-.15-1.26-.46-1.81-.31-.55-.73-.99-1.26-1.32-.53-.33-1.13-.49-1.79-.49s-1.27.16-1.79.48c-.52.32-.93.76-1.22,1.31-.29.55-.44,1.15-.44,1.81v.04c0,.64.15,1.24.45,1.8s.72,1,1.25,1.33c.53.33,1.13.5,1.79.5s1.27-.16,1.8-.48Z"/>
      <path class="cls-6" d="M991.31,313.42c-.19-.19-.29-.42-.29-.7s.09-.51.27-.7c.18-.19.42-.29.71-.29s.53.09.71.27.27.42.27.71-.1.51-.29.7c-.19.19-.43.29-.7.29s-.51-.1-.7-.29Z"/>
      <circle class="cls-6" cx="910.25" cy="301.25" r=".91"/>
    </g>
    <g>
      <path class="cls-2" d="M704.85,217.66c0,3.43-.44,6.65-1.33,9.66-.88,3.01-2.09,5.75-3.61,8.22-1.52,2.47-3.29,4.58-5.32,6.34-2.03,1.76-4.17,3.05-6.43,3.89-2.43.92-5.17,1.69-8.22,2.32-3.06.63-6.51.94-10.35.94-1.26,0-2.36-.02-3.33-.06-.96-.04-1.76-.23-2.38-.56-.63-.34-1.11-.84-1.44-1.51-.33-.67-.5-1.59-.5-2.76v-1.13c0-.67-.02-1.42-.06-2.26-.04-.84-.06-1.59-.06-2.26v-1.26c0-.17.04-.56.13-1.19.08-.63.33-.94.75-.94.08,0,.46.08,1.13.25.92.25,2.15.44,3.7.56,1.55.13,3.16.19,4.83.19,6.11-.17,10.83-1.93,14.18-5.27,3.35-3.35,5.02-7.87,5.02-13.55v-13.36c0-3.05-.02-6.88-.06-11.48-.04-4.6-.06-10.25-.06-16.94,0-2.43.48-4.12,1.46-5.08.97-.96,2.43-1.44,4.37-1.44h7.47l.13,48.69Z"/>
      <path class="cls-2" d="M704.85,130.64c0,3.43-.44,6.65-1.33,9.66-.88,3.01-2.09,5.75-3.61,8.22-1.52,2.47-3.29,4.58-5.32,6.34-2.03,1.76-4.17,3.05-6.43,3.89-2.43.92-5.17,1.69-8.22,2.32-3.06.63-6.51.94-10.35.94-1.26,0-2.36-.02-3.33-.06-.96-.04-1.76-.23-2.38-.56-.63-.34-1.11-.84-1.44-1.51-.33-.67-.5-1.59-.5-2.76v-1.13c0-.67-.02-1.42-.06-2.26-.04-.84-.06-1.59-.06-2.26v-1.26c0-.17.04-.56.13-1.19.08-.63.33-.94.75-.94.08,0,.46.08,1.13.25.92.25,2.15.44,3.7.56,1.55.13,3.16.19,4.83.19,6.11-.17,10.83-1.93,14.18-5.27,3.35-3.35,5.02-7.87,5.02-13.55v-13.36c0-3.05-.02-6.88-.06-11.48-.04-4.6-.06-10.25-.06-16.94,0-2.43.48-4.12,1.46-5.08.97-.96,2.43-1.44,4.37-1.44h7.47l.13,48.69Z"/>
      <path class="cls-2" d="M752.79,129.63c-5.27,0-9.71-.46-13.3-1.38-3.6-.92-6.51-2.32-8.72-4.2-2.22-1.88-3.81-4.29-4.77-7.22-.96-2.93-1.44-6.44-1.44-10.54v-1.51c.08-4.1.84-7.8,2.26-11.11,1.43-3.3,3.38-6.09,5.85-8.34,2.48-2.26,5.45-3.99,8.93-5.21,3.48-1.21,7.36-1.82,11.64-1.82,3.77,0,7.17.71,10.19,2.14,3.02,1.43,5.6,3.42,7.74,5.98,2.14,2.56,3.79,5.58,4.97,9.06,1.17,3.48,1.76,7.28,1.76,11.39v10.07h25.35v12.67h-25.35c-.09,6.53-1.01,11.88-2.79,16.06-1.77,4.18-4.28,7.49-7.53,9.91-3.25,2.43-7.17,4.1-11.77,5.02-4.6.92-9.79,1.38-15.56,1.38-1.34,0-2.45-.04-3.33-.12-.88-.09-1.57-.27-2.07-.56-.5-.29-.86-.77-1.07-1.43-.21-.66-.31-1.61-.31-2.86v-1.12c0-.66-.02-1.43-.06-2.3-.04-.87-.06-1.74-.06-2.61v-1.93c0-.34.13-.59.38-.75h.13l.25-.13c.08,0,.38.08.88.25.42.17,1,.29,1.76.38.75.08,1.57.17,2.45.25.88.08,1.73.14,2.57.19.84.04,1.55.06,2.13.06,2.34,0,4.68-.23,7.03-.69,2.34-.46,4.45-1.39,6.34-2.78,1.88-1.39,3.41-3.39,4.58-6,1.17-2.61,1.76-6.02,1.76-10.23h-10.79ZM763.58,112.92c0-1.35.02-2.71.06-4.1.04-1.39.06-2.79.06-4.23,0-1.76-.25-3.44-.76-5.04-.51-1.6-1.24-3-2.21-4.22s-2.16-2.21-3.6-2.96c-1.43-.76-3.07-1.14-4.92-1.14-4.88,0-8.49,1.22-10.85,3.66-2.35,2.44-3.53,5.76-3.53,9.96,0,2.52.17,4.58.5,6.18.34,1.6.99,2.84,1.96,3.72.97.88,2.35,1.47,4.16,1.77,1.81.29,4.18.44,7.13.44h11.98v-4.04Z"/>
      <path class="cls-2" d="M831.57,130.26c-.33,0-1.19-.06-2.57-.19-1.38-.13-2.95-.36-4.71-.69-1.76-.33-3.47-.84-5.15-1.51-1.67-.67-2.93-1.59-3.76-2.76-.75.84-1.63,1.59-2.64,2.26-.92.59-2.09,1.11-3.51,1.57-1.42.46-3.14.69-5.15.69h-16.41v-12.67h14.66c3.35,0,5.23-1.64,5.65-4.91v-30.1h13.55v28.59c.17,2.6,1.11,4.41,2.82,5.42,1.71,1.01,3.83,1.51,6.34,1.51,2.26,0,4.39-.5,6.4-1.51,2.01-1.01,3.01-2.73,3.01-5.17v-28.84h13.3v29.09c0,1.26.29,2.31.88,3.15.58.84,1.34,1.51,2.26,2.02.92.5,1.95.86,3.08,1.07,1.13.21,2.24.31,3.33.31,2.26,0,4.22-.55,5.9-1.64,1.67-1.09,2.51-2.9,2.51-5.42,0-.67-.02-2.2-.06-4.59-.04-2.39-.06-4.89-.06-7.49v-9.82c0-2.43.33-4.16,1-5.16.67-1.01,2.34-1.51,5.02-1.51h7.28v30.1c.33,3.27,2.22,4.91,5.65,4.91h21.58v12.67h-19.58c-1.68,0-3.2-.21-4.58-.63-1.38-.42-2.59-.92-3.64-1.51-1.05-.58-1.9-1.19-2.57-1.82-.67-.63-1.17-1.19-1.51-1.69-1.93,2.09-4.25,3.64-6.97,4.64-2.72,1-5.71,1.51-8.97,1.51-7.28,0-12.84-1.67-16.69-5.02-1.84,1.93-4.25,3.26-7.22,4.02-2.97.75-5.79,1.13-8.47,1.13Z"/>
      <g>
        <path class="cls-2" d="M944.15,146.7c-1.86,0-3.44.65-4.75,1.95-1.31,1.3-1.96,2.82-1.96,4.58s.65,3.41,1.96,4.7c1.31,1.3,2.89,1.95,4.75,1.95s3.42-.65,4.69-1.95c1.27-1.3,1.9-2.87,1.9-4.7s-.63-3.28-1.9-4.58c-1.27-1.3-2.83-1.95-4.69-1.95Z"/>
        <path class="cls-2" d="M969.16,81.95h-26.88v.04l-29.32.06v7.63c0,1.46.48,2.55,1.44,3.28.96.73,2.66,1.09,5.08,1.09,3.98,0,7.54,0,10.78-.02v-.08h37.76c6.35,0,11.5,5.15,11.5,11.5s-5.15,11.5-11.5,11.5h-72.21v12.67h73.33c13.17,0,23.84-10.67,23.84-23.84s-10.67-23.84-23.84-23.84Z"/>
      </g>
      <path class="cls-2" d="M767.31,210.1l-.09-28.07h-7.63c-1.46,0-2.55.48-3.28,1.44-.73.96-1.09,2.66-1.09,5.08,0,3.98.09,20.42.09,20.42,0,6.35-5.15,11.5-11.5,11.5s-11.5-5.15-11.5-11.5v-26.94h-12.67v28.07c0,13.17,10.67,23.84,23.84,23.84s23.84-10.67,23.84-23.84Z"/>
      <path class="cls-2" d="M948.99,209.29l-.09-27.25h-7.63c-1.46,0-2.55.48-3.28,1.44-.73.96-1.09,2.66-1.09,5.08,0,3.98.09,19.92.09,19.92,0,6.01-4.39,11.37-10.37,11.94-6.86.65-12.63-4.72-12.63-11.45v-26.94h-11.18c-.82,0-1.49.67-1.49,1.49v26.58c0,13.69,11.54,24.69,25.43,23.79,12.67-.82,22.26-11.91,22.26-24.61Z"/>
      <path class="cls-2" d="M865.5,182.04c-13.23,0-23.95,10.72-23.95,23.95v4.01c0,13.23,10.72,23.95,23.95,23.95s23.95-10.72,23.95-23.95v-4.01c0-13.23-10.72-23.95-23.95-23.95ZM877.23,208.75c0,6.48-5.25,11.73-11.73,11.73s-11.73-5.25-11.73-11.73v-1.52c0-6.48,5.25-11.73,11.73-11.73s11.73,5.25,11.73,11.73v1.52Z"/>
      <path class="cls-2" d="M826.1,190.15v-6.66c0-.8-.65-1.45-1.45-1.45h-25.39c-8.25,0-15.67,5.92-16.63,14.12-1.15,9.75,6.44,18.02,15.96,18.02h8.74v-12.38h-6.89c-2.04,0-3.69-1.65-3.69-3.69h0c0-2.04,1.65-3.69,3.69-3.69h21.41c2.36,0,4.27-1.91,4.27-4.27Z"/>
      <path class="cls-2" d="M779.77,225.83v6.66c0,.8.65,1.45,1.45,1.45h31.42c8.25,0,15.67-5.92,16.63-14.12,1.15-9.75-6.44-18.02-15.96-18.02h-8.74v12.38h6.89c2.04,0,3.69,1.65,3.69,3.69h0c0,2.04-1.65,3.69-3.69,3.69h-27.43c-2.36,0-4.27,1.91-4.27,4.27Z"/>
      <g>
        <path class="cls-2" d="M985.27,195.49v-13.48c-12.72.51-22.88,10.95-22.88,23.79v1.52h.04l.06,26.55h7.63c1.46,0,2.55-.48,3.28-1.44.73-.96,1.09-2.66,1.09-5.08,0-3.98,0,.71-.02-2.53h-.08v-17.89c0-6.14,4.82-11.11,10.88-11.44Z"/>
        <path class="cls-2" d="M985.27,182.01h6.65c.6,0,1.08.49,1.08,1.08v9.82c0,1.42-1.15,2.58-2.58,2.58h-5.15v-13.48h0Z"/>
      </g>
      <path class="cls-2" d="M674.07,168.97h24.78c.6,0,1.08.49,1.08,1.08v9.82c0,1.42-1.15,2.58-2.58,2.58h-23.29v-13.48h0Z" transform="translate(1374.01 351.42) rotate(180)"/>
      <rect class="cls-5" x="661.81" y="257.79" width="331.19" height="4.19"/>
    </g>
    <g>
      <path class="cls-1" d="M681.13,286.83h-8.17c-.92,0-1.58-.15-1.95-.45-.36-.28-.54-.85-.54-1.68v-4.25c0-.24-.08-.45-.25-.62-.17-.17-.38-.25-.62-.25h-3.41c-1.22.03-2.26.44-3.11,1.21-.85.78-1.28,1.96-1.28,3.5s.38,2.67,1.12,3.46c.75.79,1.81,1.19,3.16,1.19s2.45-.39,3.18-1.15c.34.41.75.7,1.25.87.57.19,1.37.29,2.45.29h.04l.05-.02,5.57.02h0s3.67,0,3.67,0c.25,0,.45-.08.62-.25.16-.16.25-.38.25-.62v-8.48h-2.04v7.24ZM668.35,281.67v2.65c0,.88-.21,1.52-.64,1.91-.43.4-1,.6-1.73.6-.68-.01-1.18-.2-1.54-.57-.35-.37-.53-1.02-.53-1.94,0-.84.22-1.5.64-1.96.43-.46,1.01-.68,1.78-.68h2.01Z"/>
      <path class="cls-1" d="M712.4,290.58c-.23.22-.35.49-.35.82s.12.6.35.82c.23.22.5.33.82.33s.6-.11.82-.33c.22-.22.33-.49.33-.81s-.11-.57-.33-.8c-.44-.46-1.19-.46-1.64-.02Z"/>
      <path class="cls-1" d="M719.21,286.83h-2.42c-.92,0-1.58-.15-1.95-.45-.36-.28-.54-.85-.54-1.68v-5.12h-2.11v5.12c0,.82-.18,1.38-.53,1.67-.36.3-1.02.46-1.96.46s-1.58-.15-1.95-.45c-.36-.28-.54-.85-.54-1.68v-5.12h-2.11v5.53c0,.61-.13,1.06-.38,1.32-.25.26-.66.39-1.22.39-.4,0-.73-.11-1-.32-.25-.2-.38-.56-.38-1.07v-5.85h-2.11v5.85c0,.55-.11.93-.31,1.1-.15.13-.51.28-1.36.3-.68,0-1.58-.22-1.58-2.15v-5.1h-2.11v5.12c0,.83-.18,1.39-.54,1.68-.37.3-1.03.45-1.95.45h-2.12v-7.24h-2.11v9.05c0,.75-.29,1.34-.89,1.81-.61.48-1.55.8-2.78.93l-.22.02.03,2.11.26-.02c1.78-.17,3.18-.68,4.16-1.51.94-.79,1.45-1.81,1.54-3.03h2.25c.97,0,1.74-.09,2.27-.26.48-.15.89-.42,1.22-.81.29.3.63.54,1,.73.46.23.98.34,1.55.34,1.19,0,2.1-.33,2.71-.97.27.28.59.5.95.66.45.2.92.31,1.4.31.63,0,1.21-.1,1.73-.29.43-.16.81-.38,1.12-.65.32.33.72.56,1.2.7.54.16,1.28.24,2.27.24h.04c.98,0,1.75-.09,2.28-.25.47-.14.88-.4,1.21-.76.33.36.74.61,1.21.76.53.16,1.3.24,2.27.25h0s.06,0,.06,0h3.57c.25,0,.46-.08.62-.25.16-.16.25-.38.25-.62v-13.11h-2.02v11.88Z"/>
      <rect class="cls-1" x="723.69" y="274.95" width="2.11" height="13.99"/>
      <path class="cls-1" d="M741.55,280.19c-.72.4-1.3.98-1.72,1.71-.42.73-.63,1.56-.63,2.48v2.09c0,.38.13.71.4.97.26.26.58.38.95.38h3.06v1.06c0,.75-.28,1.34-.87,1.81-.59.48-1.43.72-2.48.72s-1.92-.25-2.52-.73c-.59-.48-.88-1.06-.88-1.78v-3.67h-2.11v3.67c0,.88.23,1.68.68,2.38.45.7,1.1,1.26,1.93,1.66.82.4,1.79.6,2.89.6s2.04-.2,2.87-.6c.84-.4,1.49-.96,1.95-1.65.46-.7.68-1.47.66-2.3v-1.93c0-.37-.13-.68-.39-.94-.26-.26-.58-.39-.96-.39l-3.06-.02v-1.33c0-.81.25-1.44.76-1.96.51-.51,1.12-.76,1.86-.76h1.78v-2.09h-1.78c-.87,0-1.68.2-2.4.61Z"/>
      <path class="cls-1" d="M778.07,286.83h-3.88v-2.42c0-1.48-.39-2.66-1.16-3.52-.78-.87-1.86-1.3-3.21-1.3s-2.4.43-3.16,1.28c-.76.84-1.14,2.03-1.14,3.54,0,.94.18,1.75.52,2.42h-9.32v-1.85c0-1.69-.42-3.02-1.24-3.96-.83-.95-1.97-1.43-3.38-1.43s-2.49.42-3.26,1.24c-.77.82-1.15,2.06-1.15,3.67,0,.89.23,1.68.68,2.36.44.67,1.02,1.19,1.7,1.54.68.36,1.38.54,2.09.54h2.42c-.08.61-.38,1.11-.9,1.52-.61.48-1.53.78-2.75.92l-.21.02.03,2.11.26-.02c1.78-.17,3.19-.68,4.17-1.51.94-.79,1.46-1.81,1.55-3.03h1.53l.02-.02,5.72.02h0s11.61,0,11.61,0h3.63c.25,0,.46-.08.62-.25.16-.16.25-.38.25-.62v-13.11h-2.02v11.88ZM767.58,284.41c0-.92.21-1.61.62-2.05.41-.45.94-.67,1.6-.68.71,0,1.27.22,1.71.69.44.46.66,1.15.66,2.05v2.42h-2.12c-.94,0-1.59-.18-1.94-.55-.35-.37-.53-1-.53-1.87ZM750.45,282.33c.42-.45.96-.66,1.66-.66s1.28.28,1.76.85c.48.57.73,1.41.73,2.48v1.83h-2.49c-.64,0-1.17-.22-1.61-.67-.45-.45-.67-.98-.67-1.64,0-1.01.21-1.74.63-2.19Z"/>
      <rect class="cls-1" x="782.54" y="274.95" width="2.11" height="13.99"/>
      <path class="cls-1" d="M802.48,288.86c0,.75-.29,1.35-.88,1.83-.6.49-1.44.73-2.5.73s-1.92-.25-2.52-.73c-.59-.48-.88-1.08-.88-1.83v-3.62h-2.11v3.64c0,.88.23,1.68.68,2.39.45.71,1.1,1.27,1.94,1.68.82.4,1.79.6,2.89.6s2.04-.2,2.86-.6c.83-.4,1.48-.96,1.93-1.65.46-.69.69-1.47.69-2.3v-14.32h-2.11v14.18Z"/>
      <path class="cls-1" d="M844.92,286.83h-3.82c-.18-1.27-.68-2.47-1.48-3.55-.84-1.14-1.92-2.05-3.2-2.7-1.29-.66-2.66-.99-4.08-.99h-.24v2.11h.24c1.06,0,2.07.24,2.99.7.92.47,1.71,1.11,2.33,1.91.59.76.98,1.62,1.16,2.52h-8.78c-.92,0-1.58-.15-1.95-.45-.36-.28-.54-.85-.54-1.68v-9.75h-2.11v9.75c0,.82-.18,1.38-.53,1.67-.36.3-1.02.46-1.96.46h-7.37v-1.85c0-1.69-.42-3.02-1.24-3.96-.83-.95-1.97-1.43-3.38-1.43s-2.49.42-3.26,1.24c-.77.82-1.15,2.06-1.15,3.67,0,.89.23,1.68.68,2.36.44.67,1.02,1.19,1.7,1.54.68.36,1.38.54,2.09.54h2.42c-.08.61-.38,1.11-.9,1.52-.61.48-1.53.78-2.75.92l-.21.02.03,2.11.26-.02c1.78-.17,3.19-.68,4.17-1.51.94-.79,1.46-1.81,1.55-3.03h1.53l.02-.02,5.83.02h0s0,0,0,0h.06s0,0,0,0c.97,0,1.73-.09,2.26-.25.47-.14.88-.4,1.21-.76.33.36.74.61,1.21.76.54.17,1.33.25,2.33.25h.04l.08-.03,12.29.03h0s3.63,0,3.63,0c.25,0,.46-.08.62-.25.16-.16.25-.38.25-.62v-13.11h-2.02v11.88ZM809.31,282.33c.42-.45.96-.66,1.66-.66s1.28.28,1.76.85c.48.57.73,1.41.73,2.48v1.83h-2.49c-.64,0-1.17-.22-1.61-.67-.45-.45-.67-.98-.67-1.64,0-1.01.21-1.74.63-2.19Z"/>
      <path class="cls-1" d="M874.79,286.83h-8.2c-.92,0-1.58-.15-1.95-.45-.36-.28-.54-.85-.54-1.68v-4.25c0-.24-.08-.45-.25-.62-.17-.17-.38-.25-.62-.25h-3.41c-1.22.03-2.26.44-3.11,1.21-.85.78-1.28,1.96-1.28,3.5s.38,2.67,1.12,3.46c.75.79,1.81,1.19,3.16,1.19s2.45-.39,3.18-1.15c.34.41.75.7,1.25.87.57.19,1.37.29,2.45.29h.04l.05-.02,5.6.02h0s3.67,0,3.67,0c.25,0,.45-.08.62-.25.16-.16.25-.38.25-.62v-8.48h-2.04v7.24ZM861.98,281.67v2.65c0,.88-.21,1.52-.64,1.91-.43.4-1,.6-1.73.6-.68-.01-1.18-.2-1.54-.57-.35-.37-.53-1.02-.53-1.94,0-.84.22-1.5.64-1.96.43-.46,1.01-.68,1.78-.68h2.01Z"/>
      <path class="cls-1" d="M914.59,286.83h-3.88v-2.42c0-1.48-.39-2.66-1.16-3.52-.78-.87-1.86-1.3-3.21-1.3s-2.4.43-3.16,1.28c-.76.84-1.14,2.03-1.14,3.54,0,.94.18,1.75.52,2.42h-2.03l-.03.02-1.65-.02v-1.44c0-1.66-.41-3.06-1.22-4.14-.82-1.1-2.04-1.66-3.61-1.66-2,0-3.76,1.29-5.24,3.84v-8.47h-2.11v11.88h-3v-7.24h-2.11v9.05c0,.75-.29,1.34-.89,1.81-.61.48-1.55.8-2.78.93l-.22.02.03,2.11.26-.02c1.78-.17,3.18-.68,4.16-1.51.94-.79,1.45-1.81,1.54-3.03h2.25l.04-.03,14.54.03h0s11.61,0,11.61,0h3.63c.25,0,.46-.08.62-.25.16-.16.25-.38.25-.62v-13.11h-2.02v11.88ZM904.1,284.41c0-.92.21-1.61.62-2.05.41-.45.94-.67,1.6-.68.71,0,1.27.22,1.71.69.44.46.66,1.15.66,2.05v2.42h-2.12c-.94,0-1.59-.18-1.94-.55-.35-.37-.53-1-.53-1.87ZM893.98,281.69c.96,0,1.65.31,2.13.95.48.65.73,1.5.73,2.52v1.67h-7.75c.65-1.65,1.4-2.92,2.23-3.79.86-.89,1.76-1.35,2.67-1.35Z"/>
      <rect class="cls-1" x="919.06" y="274.95" width="2.11" height="13.99"/>
      <path class="cls-1" d="M955.59,280.17h0c-.68-.39-1.46-.59-2.3-.59h-1.8l5.73-3.91v-2.23l-9.05,6.16-.1.07v2.02h5.21c.68,0,1.25.22,1.72.68.47.46.7,1.04.7,1.78v2.67h-14.43c-.92,0-1.58-.15-1.95-.45-.36-.28-.54-.85-.54-1.68v-4.25c0-.24-.08-.45-.25-.62-.17-.17-.38-.25-.62-.25h-3.41c-1.22.03-2.26.44-3.11,1.21-.85.78-1.28,1.96-1.28,3.5s.38,2.67,1.12,3.46c.75.79,1.81,1.19,3.16,1.19s2.45-.39,3.18-1.15c.34.41.75.7,1.25.87.57.19,1.37.29,2.45.29h.04l.05-.02,5.75.02h0s9.82,0,9.82,0c.25,0,.46-.08.62-.25.16-.16.25-.38.25-.62v-3.91c0-.87-.2-1.66-.6-2.35-.4-.69-.95-1.24-1.63-1.63ZM936.66,281.67v2.65c0,.88-.21,1.52-.64,1.91-.43.4-1,.6-1.73.6-.68-.01-1.18-.2-1.54-.57-.35-.37-.53-1.02-.53-1.94,0-.84.22-1.5.64-1.96.43-.46,1.01-.68,1.78-.68h2.01Z"/>
      <path class="cls-1" d="M986.42,286.83h-2.42c-.92,0-1.58-.15-1.95-.45-.36-.28-.54-.85-.54-1.68v-5.12h-2.11v5.53c0,.61-.13,1.06-.38,1.32-.25.26-.66.39-1.22.39-.4,0-.73-.11-1-.32-.25-.2-.38-.56-.38-1.07v-5.85h-2.11v5.85c0,.55-.11.93-.31,1.1-.15.13-.51.28-1.36.3-.68,0-1.58-.22-1.58-2.15v-5.1h-2.11v5.12c0,.83-.18,1.39-.54,1.68-.37.3-1.03.45-1.95.45h-2.12v-7.24h-2.11v9.05c0,.75-.29,1.34-.89,1.81-.61.48-1.55.8-2.78.93l-.22.02.03,2.11.26-.02c1.78-.17,3.18-.68,4.16-1.51.94-.79,1.45-1.81,1.54-3.03h2.25c.97,0,1.74-.09,2.27-.26.48-.15.89-.42,1.22-.81.29.3.63.54,1,.73.46.23.98.34,1.55.34,1.19,0,2.1-.33,2.71-.97.27.28.59.5.95.66.45.2.92.31,1.4.31.63,0,1.21-.1,1.73-.29.43-.16.81-.38,1.12-.65.32.33.72.56,1.2.7.53.16,1.25.23,2.21.24h0s.06,0,.06,0h3.56c.25,0,.46-.08.62-.25.16-.16.25-.38.25-.62v-13.11h-2.02v11.88Z"/>
      <rect class="cls-1" x="990.89" y="274.95" width="2.11" height="13.99"/>
      <g>
        <g>
          <path class="cls-1" d="M975.64,276.44c0,.32.12.6.34.83.23.23.51.34.83.34s.6-.12.82-.35c.22-.23.33-.5.33-.82s-.11-.6-.33-.82h0c-.44-.44-1.18-.44-1.64,0-.23.22-.35.5-.35.82Z"/>
          <path class="cls-1" d="M974.02,277.61c.32,0,.6-.12.82-.35.22-.23.33-.5.33-.82s-.11-.6-.33-.82h0c-.44-.44-1.18-.44-1.64,0-.23.22-.35.5-.35.82s.12.6.34.83c.23.23.5.34.83.34Z"/>
        </g>
        <path class="cls-1" d="M975.41,275.29c.32,0,.6-.12.82-.35.22-.23.33-.5.33-.8s-.11-.6-.33-.82c-.44-.46-1.19-.46-1.65,0-.23.23-.34.51-.34.83s.12.6.35.82c.23.22.5.33.82.33Z"/>
      </g>
      <g>
        <g>
          <path class="cls-1" d="M701.35,276.44c0,.32.12.6.34.83.23.23.51.34.83.34s.6-.12.82-.35c.22-.23.33-.5.33-.82s-.11-.6-.33-.82h0c-.44-.44-1.18-.44-1.64,0-.23.22-.35.5-.35.82Z"/>
          <path class="cls-1" d="M699.73,277.61c.32,0,.6-.12.82-.35.22-.23.33-.5.33-.82s-.11-.6-.33-.82h0c-.44-.44-1.18-.44-1.64,0-.23.22-.35.5-.35.82s.12.6.34.83c.23.23.5.34.83.34Z"/>
        </g>
        <path class="cls-1" d="M701.12,275.29c.32,0,.6-.12.82-.35.22-.23.33-.5.33-.8s-.11-.6-.33-.82c-.44-.46-1.19-.46-1.65,0-.23.23-.34.51-.34.83s.12.6.35.82c.23.22.5.33.82.33Z"/>
      </g>
      <g>
        <path class="cls-1" d="M935.47,276.43c0,.32.12.6.34.83.23.23.51.34.83.34s.6-.12.82-.35c.22-.23.33-.5.33-.82s-.11-.6-.33-.82h0c-.44-.44-1.18-.44-1.64,0-.23.22-.35.5-.35.82Z"/>
        <path class="cls-1" d="M933.85,277.6c.32,0,.6-.12.82-.35.22-.23.33-.5.33-.82s-.11-.6-.33-.82h0c-.44-.44-1.18-.44-1.64,0-.23.22-.35.5-.35.82s.12.6.34.83c.23.23.5.34.83.34Z"/>
      </g>
      <g>
        <path class="cls-1" d="M906.54,276.43c0,.32.12.6.34.83.23.23.51.34.83.34s.6-.12.82-.35c.22-.23.33-.5.33-.82s-.11-.6-.33-.82h0c-.44-.44-1.18-.44-1.64,0-.23.22-.35.5-.35.82Z"/>
        <path class="cls-1" d="M904.92,277.6c.32,0,.6-.12.82-.35.22-.23.33-.5.33-.82s-.11-.6-.33-.82h0c-.44-.44-1.18-.44-1.64,0-.23.22-.35.5-.35.82s.12.6.34.83c.23.23.5.34.83.34Z"/>
      </g>
      <g>
        <path class="cls-1" d="M874.42,291.44c0,.32.12.6.34.83.23.23.51.34.83.34s.6-.12.82-.35c.22-.23.33-.5.33-.82s-.11-.6-.33-.82h0c-.44-.44-1.18-.44-1.64,0-.23.22-.35.5-.35.82Z"/>
        <path class="cls-1" d="M872.8,292.61c.32,0,.6-.12.82-.35.22-.23.33-.5.33-.82s-.11-.6-.33-.82h0c-.44-.44-1.18-.44-1.64,0-.23.22-.35.5-.35.82s.12.6.34.83c.23.23.5.34.83.34Z"/>
      </g>
      <g>
        <path class="cls-1" d="M860.78,276.43c0,.32.12.6.34.83.23.23.51.34.83.34s.6-.12.82-.35c.22-.23.33-.5.33-.82s-.11-.6-.33-.82h0c-.44-.44-1.18-.44-1.64,0-.23.22-.35.5-.35.82Z"/>
        <path class="cls-1" d="M859.16,277.6c.32,0,.6-.12.82-.35.22-.23.33-.5.33-.82s-.11-.6-.33-.82h0c-.44-.44-1.18-.44-1.64,0-.23.22-.35.5-.35.82s.12.6.34.83c.23.23.5.34.83.34Z"/>
      </g>
      <g>
        <path class="cls-1" d="M770.02,276.43c0,.32.12.6.34.83.23.23.51.34.83.34s.6-.12.82-.35c.22-.23.33-.5.33-.82s-.11-.6-.33-.82h0c-.44-.44-1.18-.44-1.64,0-.23.22-.35.5-.35.82Z"/>
        <path class="cls-1" d="M768.4,277.6c.32,0,.6-.12.82-.35.22-.23.33-.5.33-.82s-.11-.6-.33-.82h0c-.44-.44-1.18-.44-1.64,0-.23.22-.35.5-.35.82s.12.6.34.83c.23.23.5.34.83.34Z"/>
      </g>
      <g>
        <path class="cls-1" d="M680.76,291.44c0,.32.12.6.34.83.23.23.51.34.83.34s.6-.12.82-.35c.22-.23.33-.5.33-.82s-.11-.6-.33-.82h0c-.44-.44-1.18-.44-1.64,0-.23.22-.35.5-.35.82Z"/>
        <path class="cls-1" d="M679.14,292.61c.32,0,.6-.12.82-.35.22-.23.33-.5.33-.82s-.11-.6-.33-.82h0c-.44-.44-1.18-.44-1.64,0-.23.22-.35.5-.35.82s.12.6.34.83c.23.23.5.34.83.34Z"/>
      </g>
      <g>
        <path class="cls-1" d="M667.15,276.43c0,.32.12.6.34.83.23.23.51.34.83.34s.6-.12.82-.35c.22-.23.33-.5.33-.82s-.11-.6-.33-.82h0c-.44-.44-1.18-.44-1.64,0-.23.22-.35.5-.35.82Z"/>
        <path class="cls-1" d="M665.53,277.6c.32,0,.6-.12.82-.35.22-.23.33-.5.33-.82s-.11-.6-.33-.82h0c-.44-.44-1.18-.44-1.64,0-.23.22-.35.5-.35.82s.12.6.34.83c.23.23.5.34.83.34Z"/>
      </g>
    </g>
  </g>
</svg>